
<svg xmlns="http://www.w3.org/2000/svg" width="228.864" height="229.686" viewBox="0 0 228.864 229.686">
  <g id="ACCESSIBLE" transform="translate(-551.702 -1223.509)">
    <path id="Path_3926" data-name="Path 3926" d="M818.845,395.76a1.994,1.994,0,0,1-1.24-3.555c1.576-1.249,3.128-2.568,4.611-3.92a1.993,1.993,0,1,1,2.685,2.946c-1.551,1.412-3.172,2.792-4.819,4.1a1.983,1.983,0,0,1-1.237.431" transform="translate(-97.01 1014.964)" fill="#d7e9c1"/>
    <path id="Path_3927" data-name="Path 3927" d="M836.616,373.086a1.993,1.993,0,0,1-1.553-3.241A87.364,87.364,0,0,0,848.735,345.9a1.993,1.993,0,1,1,3.73,1.405,91.367,91.367,0,0,1-14.293,25.034,1.99,1.99,0,0,1-1.555.745" transform="translate(-100.505 1023.449)" fill="#d7e9c1"/>
    <path id="Path_3928" data-name="Path 3928" d="M860.793,316.406c-.053,0-.107,0-.161-.006a1.993,1.993,0,0,1-1.828-2.145c.186-2.33.28-4.7.28-7.057v-.377a1.993,1.993,0,0,1,1.987-2h.006a1.993,1.993,0,0,1,1.992,1.987v.389c0,2.458-.1,4.939-.292,7.374a1.994,1.994,0,0,1-1.984,1.834" transform="translate(-105.258 1031.273)" fill="#d7e9c1"/>
    <path id="Path_3929" data-name="Path 3929" d="M857.857,286.01a1.994,1.994,0,0,1-1.968-1.694,86.947,86.947,0,0,0-8.07-25.607,1.993,1.993,0,0,1,3.572-1.77,90.959,90.959,0,0,1,8.439,26.779,1.994,1.994,0,0,1-1.672,2.27,2.017,2.017,0,0,1-.3.022" transform="translate(-103.059 1040.906)" fill="#d7e9c1"/>
    <path id="Path_3930" data-name="Path 3930" d="M816.591,220.778a1.987,1.987,0,0,1-1.279-.465,87.732,87.732,0,0,0-18.41-11.864,1.993,1.993,0,0,1,1.723-3.594,91.721,91.721,0,0,1,19.247,12.4,1.993,1.993,0,0,1-1.281,3.52" transform="translate(-92.865 1050.967)" fill="#d7e9c1"/>
    <path id="Path_3931" data-name="Path 3931" d="M686.246,216.521a1.993,1.993,0,0,1-1.135-3.632c2.021-1.4,4.122-2.728,6.245-3.956a1.993,1.993,0,1,1,2,3.451c-2.031,1.175-4.04,2.447-5.974,3.784a1.986,1.986,0,0,1-1.131.353" transform="translate(-70.938 1050.179)" fill="#d7e9c1"/>
    <path id="Path_3932" data-name="Path 3932" d="M647.423,257.911a1.994,1.994,0,0,1-1.824-2.795,91.4,91.4,0,0,1,18.58-27.41,1.993,1.993,0,1,1,2.842,2.793,87.425,87.425,0,0,0-17.772,26.219,2,2,0,0,1-1.826,1.192" transform="translate(-63.305 1046.553)" fill="#d7e9c1"/>
    <path id="Path_3933" data-name="Path 3933" d="M638.448,298.445c-.055,0-.111,0-.167-.007a1.992,1.992,0,0,1-1.821-2.151c.17-2.052.414-4.124.722-6.159a1.993,1.993,0,1,1,3.941.6c-.295,1.946-.528,3.928-.691,5.89a1.993,1.993,0,0,1-1.984,1.828" transform="translate(-61.54 1034.495)" fill="#d7e9c1"/>
    <path id="Path_3934" data-name="Path 3934" d="M643.556,341.156a2,2,0,0,1-1.871-1.305,91.256,91.256,0,0,1-5.514-27.633,1.993,1.993,0,1,1,3.982-.17,87.268,87.268,0,0,0,5.273,26.427,1.994,1.994,0,0,1-1.87,2.681" transform="translate(-61.484 1030.227)" fill="#d7e9c1"/>
    <path id="Path_3935" data-name="Path 3935" d="M838.772,412.834a1.993,1.993,0,0,1-1.273-3.528,111.292,111.292,0,0,0,16.48-16.912,1.993,1.993,0,0,1,3.134,2.462,115.2,115.2,0,0,1-17.072,17.519,1.987,1.987,0,0,1-1.27.458" transform="translate(-100.928 1014.204)" fill="#d7e9c1"/>
    <path id="Path_3936" data-name="Path 3936" d="M868.7,381.329a1.993,1.993,0,0,1-1.694-3.04c1.079-1.747,2.121-3.545,3.1-5.344a1.993,1.993,0,1,1,3.5,1.9c-1.011,1.864-2.09,3.727-3.209,5.537a1.992,1.992,0,0,1-1.7.946" transform="translate(-106.813 1018.083)" fill="#d7e9c1"/>
    <path id="Path_3937" data-name="Path 3937" d="M885.512,335.213a1.995,1.995,0,0,1-1.938-2.465,110.888,110.888,0,0,0,3.124-26.187c0-.966-.013-1.952-.038-2.932a1.993,1.993,0,1,1,3.984-.1c.026,1.014.04,2.035.04,3.035a114.891,114.891,0,0,1-3.238,27.129,2,2,0,0,1-1.935,1.522" transform="translate(-110.118 1031.909)" fill="#d7e9c1"/>
    <path id="Path_3938" data-name="Path 3938" d="M887.4,285.437a1.994,1.994,0,0,1-1.966-1.679c-.343-2.148-.756-4.316-1.227-6.441a1.993,1.993,0,1,1,3.892-.863c.488,2.2.916,4.448,1.272,6.675a1.994,1.994,0,0,1-1.654,2.282,2.016,2.016,0,0,1-.317.025" transform="translate(-110.245 1037.158)" fill="#d7e9c1"/>
    <path id="Path_3939" data-name="Path 3939" d="M864.407,231.456a1.994,1.994,0,0,1-1.719-.982,110.617,110.617,0,0,0-23.169-27.7,1.993,1.993,0,0,1,2.6-3.021,114.6,114.6,0,0,1,24,28.7,1.994,1.994,0,0,1-1.715,3.005" transform="translate(-101.331 1052.027)" fill="#d7e9c1"/>
    <path id="Path_3940" data-name="Path 3940" d="M823.478,190.572a1.983,1.983,0,0,1-1.077-.318c-2.312-1.489-4.708-2.908-7.12-4.218a1.994,1.994,0,0,1,1.9-3.5c2.5,1.358,4.981,2.829,7.377,4.372a1.993,1.993,0,0,1-1.081,3.668" transform="translate(-96.497 1055.365)" fill="#d7e9c1"/>
    <path id="Path_3941" data-name="Path 3941" d="M770.335,172.323a1.989,1.989,0,0,1-.452-.052,111.454,111.454,0,0,0-44.158-1.2,1.993,1.993,0,0,1-.685-3.927,115.47,115.47,0,0,1,45.745,1.248,1.993,1.993,0,0,1-.449,3.935" transform="translate(-78.634 1058.68)" fill="#d7e9c1"/>
    <path id="Path_3942" data-name="Path 3942" d="M693.85,180.181a1.993,1.993,0,0,1-.8-3.821c2.768-1.2,5.618-2.311,8.471-3.289a1.993,1.993,0,1,1,1.293,3.77c-2.752.944-5.5,2.012-8.172,3.173a1.992,1.992,0,0,1-.794.166" transform="translate(-72.434 1057.199)" fill="#d7e9c1"/>
    <path id="Path_3943" data-name="Path 3943" d="M629.632,231.618a1.993,1.993,0,0,1-1.706-3.02,114.824,114.824,0,0,1,19.01-23.785,1.993,1.993,0,1,1,2.756,2.878,110.866,110.866,0,0,0-18.35,22.96,1.993,1.993,0,0,1-1.71.966" transform="translate(-59.807 1051.045)" fill="#d7e9c1"/>
    <path id="Path_3944" data-name="Path 3944" d="M618.446,258.686A1.994,1.994,0,0,1,616.578,256c.989-2.663,2.092-5.322,3.278-7.9a1.993,1.993,0,0,1,3.622,1.665c-1.144,2.489-2.208,5.054-3.163,7.624a2,2,0,0,1-1.869,1.3" transform="translate(-57.608 1042.654)" fill="#d7e9c1"/>
    <path id="Path_3945" data-name="Path 3945" d="M610.1,314.768a1.993,1.993,0,0,1-1.982-1.8c-.367-3.732-.553-7.538-.553-11.312a115.214,115.214,0,0,1,2.41-23.473,1.994,1.994,0,1,1,3.9.814,111.259,111.259,0,0,0-2.326,22.659c0,3.645.179,7.32.533,10.923a1.994,1.994,0,0,1-1.789,2.18q-.1.01-.2.01" transform="translate(-55.86 1036.823)" fill="#d7e9c1"/>
    <path id="Path_3946" data-name="Path 3946" d="M614.713,346.608a1.994,1.994,0,0,1-1.91-1.424,114.116,114.116,0,0,1-2.838-11.741,1.994,1.994,0,1,1,3.921-.729,110.031,110.031,0,0,0,2.738,11.328,1.994,1.994,0,0,1-1.911,2.565" transform="translate(-56.325 1026.109)" fill="#d7e9c1"/>
    <path id="Path_3947" data-name="Path 3947" d="M657.333,411.828a1.984,1.984,0,0,1-1.2-.4,115.632,115.632,0,0,1-32.141-37.776,1.994,1.994,0,1,1,3.524-1.866,111.628,111.628,0,0,0,31.026,36.463,1.994,1.994,0,0,1-1.206,3.584" transform="translate(-59.044 1018.316)" fill="#d7e9c1"/>
    <path id="Path_3948" data-name="Path 3948" d="M686.076,433.99a1.983,1.983,0,0,1-.873-.2c-2.98-1.455-5.931-3.059-8.771-4.769a1.994,1.994,0,1,1,2.056-3.417c2.742,1.649,5.59,3.2,8.465,4.6a1.994,1.994,0,0,1-.876,3.786" transform="translate(-69.211 1007.581)" fill="#d7e9c1"/>
    <path id="Path_3949" data-name="Path 3949" d="M744.849,448.357a115.526,115.526,0,0,1-19.389-1.636,1.994,1.994,0,0,1,.671-3.931,111.446,111.446,0,0,0,46.762-2.012,1.994,1.994,0,1,1,1.01,3.859,114.838,114.838,0,0,1-29.054,3.721" transform="translate(-78.715 1004.554)" fill="#d7e9c1"/>
    <path id="Path_3950" data-name="Path 3950" d="M801.638,438.324a1.994,1.994,0,0,1-.744-3.845c2.709-1.089,5.411-2.3,8.031-3.6a1.994,1.994,0,1,1,1.777,3.57c-2.714,1.351-5.514,2.608-8.321,3.736a2,2,0,0,1-.742.144" transform="translate(-93.627 1006.529)" fill="#d7e9c1"/>
    <path id="Path_3951" data-name="Path 3951" d="M731.728,411.826a91.542,91.542,0,0,1-74.279-37.942,1.994,1.994,0,0,1,3.229-2.34,87.771,87.771,0,0,0,105.176,29.4,1.994,1.994,0,0,1,1.554,3.674,91.1,91.1,0,0,1-35.68,7.2" transform="translate(-65.594 1018.316)" fill="#63a022"/>
    <path id="Path_3952" data-name="Path 3952" d="M798.03,266.628a11.728,11.728,0,0,1-2.987-23.064l33.3-8.832a11.726,11.726,0,1,1,6.013,22.667l-33.3,8.832a11.772,11.772,0,0,1-3.025.4m33.315-28.3a7.707,7.707,0,0,0-1.982.259l-33.3,8.832a7.737,7.737,0,0,0,3.967,14.957l33.3-8.832a7.738,7.738,0,0,0-1.985-15.217" transform="translate(-91.007 1045.131)" fill="#63a022"/>
    <path id="Path_3953" data-name="Path 3953" d="M791.866,330.98v-125.3a10.461,10.461,0,0,0-10.461-10.461H726.55a10.461,10.461,0,0,0-10.461,10.461V316.387l4.32,23.541a27.537,27.537,0,0,0,6.141,1.513h54.855a10.461,10.461,0,0,0,10.461-10.461" transform="translate(-77.198 1052.823)" fill="#d7e9c1"/>
    <path id="Path_3954" data-name="Path 3954" d="M780.039,342.946H721.595a12.4,12.4,0,0,1-4.528-.848,1.995,1.995,0,0,1,1.45-3.716,8.423,8.423,0,0,0,3.078.576h58.444a8.477,8.477,0,0,0,8.467-8.467v-125.3a8.477,8.477,0,0,0-8.467-8.467H721.595a8.477,8.477,0,0,0-8.468,8.467V313.5a1.994,1.994,0,1,1-3.988,0V205.193a12.47,12.47,0,0,1,12.456-12.456h58.444a12.47,12.47,0,0,1,12.456,12.456v125.3a12.47,12.47,0,0,1-12.456,12.456" transform="translate(-75.832 1053.311)" fill="#63a022"/>
    <path id="Path_3955" data-name="Path 3955" d="M783.973,328.594H721.895a2.049,2.049,0,0,1-1.986-2.106V218.5a2.049,2.049,0,0,1,1.986-2.106h62.078a2.049,2.049,0,0,1,1.986,2.106v107.99a2.049,2.049,0,0,1-1.986,2.106" transform="translate(-77.949 1048.66)" fill="#fff"/>
    <path id="Path_3956" data-name="Path 3956" d="M783.485,330.1H721.407a4.046,4.046,0,0,1-3.98-4.1V218.009a4.046,4.046,0,0,1,3.98-4.1h62.078a4.047,4.047,0,0,1,3.981,4.1V326a4.047,4.047,0,0,1-3.981,4.1m-62.038-3.989h62a.186.186,0,0,0,.031-.112V218.009a.186.186,0,0,0-.031-.112h-62a.186.186,0,0,0-.031.112V326a.186.186,0,0,0,.031.112" transform="translate(-77.461 1049.148)" fill="#63a022"/>
    <path id="Path_3957" data-name="Path 3957" d="M764.875,365.588a5.109,5.109,0,1,1-5.109-5.109,5.109,5.109,0,0,1,5.109,5.109" transform="translate(-84.782 1020.329)" fill="#63a022"/>
    <path id="Path_3958" data-name="Path 3958" d="M752.2,207.79h0Z" transform="translate(-84.298 1050.351)" fill="#fff"/>
    <path id="Path_3959" data-name="Path 3959" d="M767.715,209.3H751.709a1.994,1.994,0,0,1,0-3.989h16.006a1.994,1.994,0,0,1,0,3.989" transform="translate(-83.81 1050.84)" fill="#63a022"/>
    <path id="Path_3960" data-name="Path 3960" d="M745.132,207.79" transform="translate(-82.909 1050.351)" fill="#fff"/>
    <path id="Path_3961" data-name="Path 3961" d="M744.642,209.294a2.106,2.106,0,0,1-.387-.036,2.038,2.038,0,0,1-.374-.116,1.874,1.874,0,0,1-.343-.183,2.027,2.027,0,0,1-.3-.247,1.979,1.979,0,0,1-.247-.3,1.877,1.877,0,0,1-.184-.343,1.98,1.98,0,0,1-.155-.766,2,2,0,0,1,2.385-1.955,2.1,2.1,0,0,1,.374.116,1.931,1.931,0,0,1,.343.183,2.088,2.088,0,0,1,.3.247,1.837,1.837,0,0,1,.247.3,1.937,1.937,0,0,1,.184.343,2.03,2.03,0,0,1,.115.375,1.978,1.978,0,0,1-.115,1.153,1.884,1.884,0,0,1-.184.343,1.982,1.982,0,0,1-.247.3,2.036,2.036,0,0,1-.3.247,1.878,1.878,0,0,1-.343.183,2.04,2.04,0,0,1-.374.116,2.116,2.116,0,0,1-.391.036" transform="translate(-82.42 1050.839)" fill="#63a022"/>
    <path id="Path_3962" data-name="Path 3962" d="M705.544,332V297.639a21.7,21.7,0,0,0-21.7-21.7,3.127,3.127,0,0,0-3.127,3.127v92.768Z" transform="translate(-70.243 1036.952)" fill="#fff"/>
    <path id="Path_3963" data-name="Path 3963" d="M680.227,373.337a1.994,1.994,0,0,1-1.994-1.994V278.576a5.126,5.126,0,0,1,5.121-5.121,23.723,23.723,0,0,1,23.7,23.7v34.358c0,1.1-.372-2.138-1.473-2.138s-2.515-.893-2.515-1.994V297.151a19.731,19.731,0,0,0-19.708-19.708,1.134,1.134,0,0,0-1.133,1.133v92.768a1.994,1.994,0,0,1-1.994,1.994" transform="translate(-69.755 1037.44)" fill="#63a022"/>
    <path id="Path_3964" data-name="Path 3964" d="M706.637,337.314A31.267,31.267,0,0,1,713.906,375Z" transform="translate(-75.34 1024.884)" fill="#fff"/>
    <path id="Path_3965" data-name="Path 3965" d="M713.416,376.5a1.994,1.994,0,0,1-1.775-2.9,28.933,28.933,0,0,0,3.175-13.269,29.264,29.264,0,0,0-9.982-22.007,1.995,1.995,0,0,1,2.629-3,33.255,33.255,0,0,1,11.341,25.007,32.875,32.875,0,0,1-3.611,15.081,1.993,1.993,0,0,1-1.778,1.089" transform="translate(-74.852 1025.372)" fill="#63a022"/>
    <path id="Path_3966" data-name="Path 3966" d="M693.537,298.436h-13.31a2,2,0,0,1-1.995-1.995v-13.31a1.994,1.994,0,0,1,1.995-1.994,15.322,15.322,0,0,1,15.3,15.3,1.994,1.994,0,0,1-1.994,1.995m-11.316-3.989h9.146a11.349,11.349,0,0,0-9.146-9.146Z" transform="translate(-69.755 1035.93)" fill="#63a022"/>
    <path id="Path_3967" data-name="Path 3967" d="M793.952,315.5h0a7.328,7.328,0,0,1,6.441-8.12l9.82-1.133a7.329,7.329,0,0,1,1.679,14.561l-9.82,1.132a7.328,7.328,0,0,1-8.12-6.441" transform="translate(-92.498 1031.002)" fill="#fff"/>
    <path id="Path_3968" data-name="Path 3968" d="M800.738,323.495a9.337,9.337,0,0,1-9.255-8.256h0a9.321,9.321,0,0,1,8.194-10.33l9.82-1.133a9.323,9.323,0,0,1,2.136,18.523l-9.82,1.132a9.332,9.332,0,0,1-1.074.063m9.83-15.791a5.507,5.507,0,0,0-.615.035l-9.82,1.132a5.335,5.335,0,0,0,1.223,10.6l9.82-1.133a5.335,5.335,0,0,0-.607-10.634" transform="translate(-92.01 1031.49)" fill="#63a022"/>
    <path id="Path_3969" data-name="Path 3969" d="M793.883,339.213h0a6.851,6.851,0,0,1,6.021-7.59l9.179-1.058a6.85,6.85,0,1,1,1.569,13.61l-9.178,1.059a6.851,6.851,0,0,1-7.59-6.02" transform="translate(-92.485 1026.22)" fill="#fff"/>
    <path id="Path_3970" data-name="Path 3970" d="M800.182,346.785a8.845,8.845,0,0,1-1-17.632l9.179-1.058a8.844,8.844,0,0,1,2.026,17.572l-9.179,1.058a8.89,8.89,0,0,1-1.03.059m-4.807-8.289a4.864,4.864,0,0,0,5.38,4.268l9.179-1.059a4.856,4.856,0,0,0-1.113-9.649l-9.178,1.059a4.861,4.861,0,0,0-4.268,5.38" transform="translate(-91.997 1026.708)" fill="#63a022"/>
    <path id="Path_3971" data-name="Path 3971" d="M680.715,314.615h0Z" transform="translate(-70.243 1029.347)" fill="#fff"/>
    <path id="Path_3972" data-name="Path 3972" d="M690.214,316.122h-9.988a1.994,1.994,0,0,1,0-3.989h9.988a1.994,1.994,0,0,1,0,3.989" transform="translate(-69.755 1029.835)" fill="#63a022"/>
    <path id="Path_3973" data-name="Path 3973" d="M680.715,321.628h0Z" transform="translate(-70.243 1027.968)" fill="#fff"/>
    <path id="Path_3974" data-name="Path 3974" d="M685.989,323.134h-5.762a1.994,1.994,0,1,1,0-3.988h5.762a1.994,1.994,0,0,1,0,3.988" transform="translate(-69.755 1028.456)" fill="#63a022"/>
    <path id="Path_3975" data-name="Path 3975" d="M802.125,319.987a3.578,3.578,0,0,1-3.547-3.169l-.148-1.277a3.58,3.58,0,0,1,3.145-3.964l.6-.07a3.578,3.578,0,0,1,3.965,3.144l.147,1.277a3.582,3.582,0,0,1-3.144,3.964l-.6.07a3.627,3.627,0,0,1-.417.024m.468-6.508a1.592,1.592,0,0,0-.185.01l-.6.07a1.583,1.583,0,0,0-1.392,1.755l.147,1.277a1.585,1.585,0,0,0,1.755,1.391l.6-.069a1.585,1.585,0,0,0,1.391-1.755l-.147-1.277a1.585,1.585,0,0,0-1.57-1.4m-.9-.91h0Z" transform="translate(-93.384 1029.963)" fill="#63a022"/>
    <path id="Path_3976" data-name="Path 3976" d="M801.6,343.316a3.267,3.267,0,0,1-3.238-2.892l-.153-1.334a3.269,3.269,0,0,1,2.869-3.618h0l.721-.083a3.267,3.267,0,0,1,3.619,2.87l.153,1.334a3.265,3.265,0,0,1-2.87,3.618l-.721.083a3.2,3.2,0,0,1-.381.022m-.293-5.862a1.273,1.273,0,0,0-1.117,1.408l.153,1.334a1.273,1.273,0,0,0,1.408,1.117l.721-.084a1.271,1.271,0,0,0,1.117-1.408l-.153-1.334a1.271,1.271,0,0,0-1.408-1.117Z" transform="translate(-93.341 1025.267)" fill="#63a022"/>
    <path id="Path_3977" data-name="Path 3977" d="M768.684,410.853a1.994,1.994,0,0,1-1.306-3.5,63.946,63.946,0,0,0,19.8-31.151,1.994,1.994,0,1,1,3.84,1.077,67.923,67.923,0,0,1-21.029,33.09,1.986,1.986,0,0,1-1.3.487" transform="translate(-87.147 1017.525)" fill="#63a022"/>
    <path id="Path_3978" data-name="Path 3978" d="M736.253,316.977a1,1,0,0,1-.705-1.7l8.859-8.858a1,1,0,0,1,1.41,1.41l-8.858,8.858a.993.993,0,0,1-.705.292" transform="translate(-80.967 1031.017)" fill="#9ac3ed"/>
    <path id="Path_3979" data-name="Path 3979" d="M736.253,316.977a1,1,0,0,1-.705-1.7l8.859-8.858a1,1,0,0,1,1.41,1.41l-8.858,8.858a.993.993,0,0,1-.705.292" transform="translate(-80.967 1031.017)" fill="#d7e9c1"/>
    <path id="Path_3980" data-name="Path 3980" d="M738.568,294.6H726.04a1,1,0,0,1,0-1.994h12.528a1,1,0,0,1,0,1.994" transform="translate(-78.959 1033.674)" fill="#9ac3ed"/>
    <path id="Path_3981" data-name="Path 3981" d="M738.568,294.6H726.04a1,1,0,0,1,0-1.994h12.528a1,1,0,0,1,0,1.994" transform="translate(-78.959 1033.674)" fill="#d7e9c1"/>
    <path id="Path_3982" data-name="Path 3982" d="M745.031,278.885a.993.993,0,0,1-.705-.292l-8.858-8.858a1,1,0,0,1,1.41-1.41l8.859,8.858a1,1,0,0,1-.705,1.7" transform="translate(-80.951 1038.506)" fill="#9ac3ed"/>
    <path id="Path_3983" data-name="Path 3983" d="M745.031,278.885a.993.993,0,0,1-.705-.292l-8.858-8.858a1,1,0,0,1,1.41-1.41l8.859,8.858a1,1,0,0,1-.705,1.7" transform="translate(-80.951 1038.506)" fill="#d7e9c1"/>
    <path id="Path_3984" data-name="Path 3984" d="M760.716,272.341a1,1,0,0,1-1-1V258.816a1,1,0,1,1,1.994,0v12.528a1,1,0,0,1-1,1" transform="translate(-85.777 1040.515)" fill="#9ac3ed"/>
    <path id="Path_3985" data-name="Path 3985" d="M760.716,272.341a1,1,0,0,1-1-1V258.816a1,1,0,1,1,1.994,0v12.528a1,1,0,0,1-1,1" transform="translate(-85.777 1040.515)" fill="#d7e9c1"/>
    <path id="Path_3986" data-name="Path 3986" d="M774.266,278.8a1,1,0,0,1-.7-1.7l8.858-8.858a1,1,0,0,1,1.41,1.41l-8.858,8.858a.993.993,0,0,1-.705.292" transform="translate(-88.441 1038.522)" fill="#9ac3ed"/>
    <path id="Path_3987" data-name="Path 3987" d="M774.266,278.8a1,1,0,0,1-.7-1.7l8.858-8.858a1,1,0,0,1,1.41,1.41l-8.858,8.858a.993.993,0,0,1-.705.292" transform="translate(-88.441 1038.522)" fill="#d7e9c1"/>
    <path id="Path_3988" data-name="Path 3988" d="M792.438,294.489H779.91a1,1,0,1,1,0-1.994h12.528a1,1,0,1,1,0,1.994" transform="translate(-89.551 1033.696)" fill="#9ac3ed"/>
    <path id="Path_3989" data-name="Path 3989" d="M792.438,294.489H779.91a1,1,0,1,1,0-1.994h12.528a1,1,0,1,1,0,1.994" transform="translate(-89.551 1033.696)" fill="#d7e9c1"/>
    <path id="Path_3990" data-name="Path 3990" d="M783.2,316.9a.993.993,0,0,1-.705-.292l-8.858-8.858a1,1,0,0,1,1.41-1.41l8.859,8.858a1,1,0,0,1-.705,1.7" transform="translate(-88.457 1031.032)" fill="#9ac3ed"/>
    <path id="Path_3991" data-name="Path 3991" d="M783.2,316.9a.993.993,0,0,1-.705-.292l-8.858-8.858a1,1,0,0,1,1.41-1.41l8.859,8.858a1,1,0,0,1-.705,1.7" transform="translate(-88.457 1031.032)" fill="#d7e9c1"/>
    <path id="Path_3992" data-name="Path 3992" d="M760.829,326.212a1,1,0,0,1-1-1V312.687a1,1,0,1,1,1.994,0v12.528a1,1,0,0,1-1,1" transform="translate(-85.799 1029.922)" fill="#9ac3ed"/>
    <path id="Path_3993" data-name="Path 3993" d="M760.829,326.212a1,1,0,0,1-1-1V312.687a1,1,0,1,1,1.994,0v12.528a1,1,0,0,1-1,1" transform="translate(-85.799 1029.922)" fill="#d7e9c1"/>
    <path id="Path_3994" data-name="Path 3994" d="M765.953,285.081l-4.28,4.28L747.63,275.318a4.745,4.745,0,1,0-6.71,6.71l14.044,14.043,4.048,4.049a3.763,3.763,0,0,0,5.322,0l4.049-4.049,4.28-4.28a4.745,4.745,0,0,0-6.71-6.71" transform="translate(-81.807 1037.347)" fill="#d7e9c1"/>
    <path id="Path_3995" data-name="Path 3995" d="M761.185,302.725a5.735,5.735,0,0,1-4.07-1.683l-18.093-18.093a6.738,6.738,0,0,1,9.53-9.53l12.633,12.634,2.87-2.87a6.738,6.738,0,1,1,9.53,9.53l-8.329,8.329a5.737,5.737,0,0,1-4.071,1.683m-17.4-27.289a2.749,2.749,0,0,0-1.944,4.693l18.092,18.092a1.771,1.771,0,0,0,2.5,0l8.329-8.329a2.75,2.75,0,1,0-3.89-3.889l-4.28,4.28a1.994,1.994,0,0,1-2.82,0L745.731,276.24a2.737,2.737,0,0,0-1.944-.8" transform="translate(-81.319 1037.834)" fill="#63a022"/>
    <path id="Path_3996" data-name="Path 3996" d="M793,290.311h0a8.4,8.4,0,0,1,7.385-9.31l11.259-1.3a8.4,8.4,0,0,1,1.925,16.7l-11.258,1.3a8.4,8.4,0,0,1-9.31-7.385" transform="translate(-92.31 1036.223)" fill="#fff"/>
    <path id="Path_3997" data-name="Path 3997" d="M800.839,299.259a10.4,10.4,0,0,1-1.171-20.729l11.259-1.3a10.4,10.4,0,0,1,2.381,20.659l-11.258,1.3a10.622,10.622,0,0,1-1.212.071m-6.346-9.665a6.41,6.41,0,0,0,7.1,5.633l11.259-1.3a6.409,6.409,0,0,0-1.469-12.734l-11.258,1.3a6.411,6.411,0,0,0-5.633,7.1" transform="translate(-91.822 1036.711)" fill="#63a022"/>
    <path id="Path_3998" data-name="Path 3998" d="M802.915,295.763a5,5,0,0,1-4.954-4.419l-.107-.93a4.99,4.99,0,1,1,9.914-1.143l.108.93a5,5,0,0,1-4.962,5.563m-.447-8.9a3,3,0,0,0-2.633,3.32l.107.93a3,3,0,1,0,5.953-.687l-.108-.929a3,3,0,0,0-3.32-2.633" transform="translate(-93.269 1035.199)" fill="#63a022"/>
    <path id="Path_3999" data-name="Path 3999" d="M748.251,256.632a2.912,2.912,0,1,1,2.912-2.912,2.916,2.916,0,0,1-2.912,2.912m0-4.628a1.716,1.716,0,1,0,1.716,1.716A1.718,1.718,0,0,0,748.251,252" transform="translate(-82.949 1041.893)" fill="#63a022"/>
    <path id="Path_4000" data-name="Path 4000" d="M780.221,260.549h-5.27a1,1,0,1,1,0-1.994h5.27a1,1,0,0,1,0,1.994" transform="translate(-88.576 1040.37)" fill="#63a022"/>
    <path id="Path_4001" data-name="Path 4001" d="M778.23,262.539a1,1,0,0,1-1-1v-5.27a1,1,0,0,1,1.994,0v5.27a1,1,0,0,1-1,1" transform="translate(-89.221 1041.015)" fill="#63a022"/>
    <path id="Path_4002" data-name="Path 4002" d="M746.295,316.776a.993.993,0,0,1-.705-.292l-3.726-3.726a1,1,0,0,1,1.41-1.41L747,315.074a1,1,0,0,1-.705,1.7" transform="translate(-82.209 1030.047)" fill="#63a022"/>
    <path id="Path_4003" data-name="Path 4003" d="M742.568,316.776a1,1,0,0,1-.705-1.7l3.727-3.726a1,1,0,0,1,1.41,1.41l-3.726,3.726a.993.993,0,0,1-.705.292" transform="translate(-82.209 1030.047)" fill="#63a022"/>
    <path id="Path_4004" data-name="Path 4004" d="M777.954,320.8a1.379,1.379,0,1,1-1.379-1.379,1.38,1.38,0,0,1,1.379,1.379" transform="translate(-88.82 1028.402)" fill="#63a022"/>
    <path id="Path_4005" data-name="Path 4005" d="M650.824,181.467a8.4,8.4,0,1,1,8.755-8.392,8.589,8.589,0,0,1-8.755,8.392m0-12.8a4.418,4.418,0,1,0,4.766,4.4,4.6,4.6,0,0,0-4.766-4.4" transform="translate(-62.644 1058.827)" fill="#63a022"/>
    <path id="Path_4006" data-name="Path 4006" d="M853.064,446.474a8.4,8.4,0,1,1,8.755-8.393,8.589,8.589,0,0,1-8.755,8.393m0-12.8a4.418,4.418,0,1,0,4.766,4.4,4.6,4.6,0,0,0-4.766-4.4" transform="translate(-102.409 1006.721)" fill="#63a022"/>
    <path id="Path_4007" data-name="Path 4007" d="M629.618,208.592H618.273a1.994,1.994,0,1,1,0-3.989h11.345a1.994,1.994,0,0,1,0,3.989" transform="translate(-57.573 1050.978)" fill="#63a022"/>
    <path id="Path_4008" data-name="Path 4008" d="M625.334,212.876a1.994,1.994,0,0,1-1.994-1.994V199.536a1.994,1.994,0,0,1,3.988,0v11.346a1.994,1.994,0,0,1-1.994,1.994" transform="translate(-58.962 1052.366)" fill="#63a022"/>
    <path id="Path_4009" data-name="Path 4009" d="M881.51,406.406H870.164a1.994,1.994,0,0,1,0-3.989H881.51a1.994,1.994,0,0,1,0,3.989" transform="translate(-107.101 1012.083)" fill="#63a022"/>
    <path id="Path_4010" data-name="Path 4010" d="M877.225,410.691a1.994,1.994,0,0,1-1.994-1.994V397.351a1.994,1.994,0,0,1,3.988,0V408.7a1.994,1.994,0,0,1-1.994,1.994" transform="translate(-108.489 1013.471)" fill="#63a022"/>
    <path id="Path_4011" data-name="Path 4011" d="M872.8,180.741a1.424,1.424,0,0,1-1.01-.419l-5.744-5.743a1.428,1.428,0,1,1,2.02-2.02l5.744,5.745a1.428,1.428,0,0,1-1.01,2.437" transform="translate(-106.6 1057.361)" fill="#63a022"/>
    <path id="Path_4012" data-name="Path 4012" d="M867.051,180.741a1.428,1.428,0,0,1-1.01-2.437l5.744-5.745a1.428,1.428,0,1,1,2.02,2.02l-5.744,5.743a1.424,1.424,0,0,1-1.01.419" transform="translate(-106.6 1057.361)" fill="#63a022"/>
    <path id="Path_4013" data-name="Path 4013" d="M866.979,384.88a1.995,1.995,0,0,1-1.67-3.08c.454-.7.907-1.416,1.344-2.124a1.994,1.994,0,0,1,3.394,2.094c-.453.735-.922,1.475-1.394,2.2a1.992,1.992,0,0,1-1.674.909" transform="translate(-106.475 1016.741)" fill="#d7e9c1"/>
    <path id="Path_4014" data-name="Path 4014" d="M628.378,421.892a2.487,2.487,0,1,1-2.487-2.487,2.487,2.487,0,0,1,2.487,2.487" transform="translate(-58.974 1008.743)" fill="#63a022"/>
  </g>
</svg>
