
<svg id="Group_3765" data-name="Group 3765" xmlns="http://www.w3.org/2000/svg" width="161.928" height="88.884" viewBox="0 0 161.928 88.884">
  <g id="Group_2" data-name="Group 2" transform="translate(104.334)">
    <path id="Path_1" data-name="Path 1" d="M163.03,301.66h-6.7a3.289,3.289,0,0,1,0-6.578h6.7a37.864,37.864,0,0,0,0-75.727H153.014a3.289,3.289,0,0,1,0-6.578H163.03a44.442,44.442,0,0,1,0,88.884Z" transform="translate(-149.735 -212.776)" fill="#87c241"/>
  </g>
  <g id="Group_3" data-name="Group 3" transform="translate(40.794)">
    <path id="Path_2" data-name="Path 2" d="M197.174,301.66a44.359,44.359,0,0,1-42.089-30.537h-21.45a3.289,3.289,0,0,1,0-6.579h23.9a3.279,3.279,0,0,1,3.167,2.444,37.878,37.878,0,1,0-.764-15.976,3.278,3.278,0,1,1-6.469-1.069,44.317,44.317,0,1,1,43.709,51.716Z" transform="translate(-130.356 -212.776)" fill="#87c241"/>
  </g>
  <g id="Group_4" data-name="Group 4" transform="translate(0 18.135)">
    <path id="Path_3" data-name="Path 3" d="M189.48,224.846H121.193a3.279,3.279,0,0,1,0-6.558H189.48a3.279,3.279,0,0,1,0,6.558Z" transform="translate(-117.914 -218.288)" fill="#87c241"/>
  </g>
  <g id="Group_5" data-name="Group 5" transform="translate(18.033 34.585)">
    <path id="Path_4" data-name="Path 4" d="M190.117,229.845H126.693a3.279,3.279,0,0,1,0-6.557h63.425a3.279,3.279,0,1,1,0,6.557Z" transform="translate(-123.414 -223.288)" fill="#87c241"/>
  </g>
  <g id="Group_6" data-name="Group 6" transform="translate(5.482 51.858)">
    <path id="Path_5" data-name="Path 5" d="M145.269,235.1h-22.4a3.279,3.279,0,0,1,0-6.558h22.4a3.279,3.279,0,1,1,0,6.558Z" transform="translate(-119.586 -228.538)" fill="#87c241"/>
  </g>
  <g id="Group_7" data-name="Group 7" transform="translate(27.322 82.327)">
    <path id="Path_6" data-name="Path 6" d="M206.537,244.357H129.526a3.279,3.279,0,0,1,0-6.558h77.012a3.279,3.279,0,0,1,0,6.558Z" transform="translate(-126.247 -237.799)" fill="#87c241"/>
  </g>
  <g id="Group_8" data-name="Group 8" transform="translate(53.552 66.39)">
    <path id="Path_7" data-name="Path 7" d="M138.516,239.512h-.99a3.279,3.279,0,0,1,0-6.557h.99a3.279,3.279,0,1,1,0,6.557Z" transform="translate(-134.247 -232.955)" fill="#87c241"/>
  </g>
  <g id="Group_9" data-name="Group 9" transform="translate(64.005 66.39)">
    <path id="Path_8" data-name="Path 8" d="M158.167,239.512H140.714a3.279,3.279,0,1,1,0-6.557h17.453a3.279,3.279,0,1,1,0,6.557Z" transform="translate(-137.435 -232.955)" fill="#87c241"/>
  </g>
  <path id="Path_57" data-name="Path 57" d="M15.142,21.247a5.16,5.16,0,0,0-1.43-3.74,12.478,12.478,0,0,0-4.765-2.662,37.367,37.367,0,0,1-5.189-2.2Q-2.409,9.321-2.409,2.8A10.2,10.2,0,0,1,.265-4.469,11.366,11.366,0,0,1,7.518-7.85v-5.8h4.236V-7.8A10.471,10.471,0,0,1,18.875-3.87,13.5,13.5,0,0,1,21.39,4.609H14.983a8.422,8.422,0,0,0-1.5-5.284,4.867,4.867,0,0,0-4.064-1.93A5.47,5.47,0,0,0,5.453-1.221a5.268,5.268,0,0,0-1.43,3.967A4.983,4.983,0,0,0,5.44,6.459a13.755,13.755,0,0,0,4.8,2.649,40.5,40.5,0,0,1,5.321,2.316,13.614,13.614,0,0,1,3.256,2.436,9.684,9.684,0,0,1,2.038,3.155,11.2,11.2,0,0,1,.715,4.179,9.975,9.975,0,0,1-2.74,7.294,12.028,12.028,0,0,1-7.637,3.3V36.98H6.989V31.816a12.073,12.073,0,0,1-8.061-3.78A12.326,12.326,0,0,1-3.892,19.57H2.541a7.413,7.413,0,0,0,1.681,5.191A6.116,6.116,0,0,0,8.974,26.6a6.513,6.513,0,0,0,4.593-1.464A5.054,5.054,0,0,0,15.142,21.247Z" transform="translate(102.02 32.177)" fill="#87c241"/>
  <g id="Group_10" data-name="Group 10" transform="translate(51.913)">
    <path id="Path_9" data-name="Path 9" d="M189.447,219.334H137.026a3.279,3.279,0,1,1,0-6.558h52.421a3.279,3.279,0,0,1,0,6.558Z" transform="translate(-133.747 -212.776)" fill="#87c241"/>
  </g>
</svg>
