
<svg id="amerikan_flag" xmlns="http://www.w3.org/2000/svg" width="86.113" height="86.113" viewBox="0 0 86.113 86.113">
  <g id="Group_3735" data-name="Group 3735" transform="translate(2.366 2.365)">
    <path id="Path_4347" data-name="Path 4347" d="M76.089,7.658A39.987,39.987,0,0,1,72.8,13.922H4.151A39.987,39.987,0,0,1,.86,7.658Z" transform="translate(2.276 48.772)" fill="#fff"/>
    <path id="Path_4348" data-name="Path 4348" d="M79.9,6.852a39.642,39.642,0,0,1-2.039,6.272H2.637A40.457,40.457,0,0,1,.6,6.852Z" transform="translate(0.499 43.306)" fill="#b12233"/>
    <path id="Path_4349" data-name="Path 4349" d="M81.739,6.046a40.661,40.661,0,0,1-.98,6.272H1.452a41.626,41.626,0,0,1-.98-6.272Z" transform="translate(-0.355 37.84)" fill="#fff"/>
    <path id="Path_4350" data-name="Path 4350" d="M69.93,8.463a40.628,40.628,0,0,1-4.949,6.272H6.233A40.629,40.629,0,0,1,1.284,8.463Z" transform="translate(5.151 54.231)" fill="#b12233"/>
    <path id="Path_4351" data-name="Path 4351" d="M46.3,10.075a40.5,40.5,0,0,1-21.694,6.272,40.544,40.544,0,0,1-21.7-6.272Z" transform="translate(16.15 65.162)" fill="#b12233"/>
    <path id="Path_4352" data-name="Path 4352" d="M60.675,9.269A40.572,40.572,0,0,1,53,15.541H9.6a41.318,41.318,0,0,1-7.68-6.272Z" transform="translate(9.457 59.696)" fill="#fff"/>
    <path id="Path_4353" data-name="Path 4353" d="M60.675,7.484H1.919a40.917,40.917,0,0,1,7.7-6.272H52.987a40.867,40.867,0,0,1,7.688,6.272" transform="translate(9.457 5.06)" fill="#fff"/>
    <path id="Path_4354" data-name="Path 4354" d="M46.281,6.678H2.908A38.835,38.835,0,0,1,6.931,4.437l.389-.179c.467-.226.942-.436,1.432-.646l.638-.257A40.479,40.479,0,0,1,24.587.406h.008A40.45,40.45,0,0,1,46.281,6.678" transform="translate(16.164 -0.406)" fill="#b12233"/>
    <path id="Path_4355" data-name="Path 4355" d="M69.93,8.282H1.284c.358-.56.731-1.113,1.128-1.657a1.376,1.376,0,0,1,.093-.132A41.763,41.763,0,0,1,6.233,2.018H64.981A40.941,40.941,0,0,1,69.93,8.282" transform="translate(5.151 10.525)" fill="#b12233"/>
    <path id="Path_4356" data-name="Path 4356" d="M79.9,9.9H.6A41.285,41.285,0,0,1,2.637,3.629H77.866A40.437,40.437,0,0,1,79.9,9.9" transform="translate(0.499 21.45)" fill="#b12233"/>
    <path id="Path_4357" data-name="Path 4357" d="M76.089,9.095H.86c.163-.4.335-.8.529-1.206.444-.957.918-1.914,1.424-2.825.42-.763.872-1.51,1.338-2.241H72.8a40.414,40.414,0,0,1,3.291,6.272" transform="translate(2.276 15.984)" fill="#fff"/>
    <path id="Path_4358" data-name="Path 4358" d="M81.739,10.708H.472c.023-.265.047-.521.078-.778C.612,9.159.713,8.4.822,7.642c.163-1.074.374-2.155.63-3.206H80.759a40.514,40.514,0,0,1,.98,6.272" transform="translate(-0.355 26.922)" fill="#fff"/>
    <path id="Path_4359" data-name="Path 4359" d="M81.958,8.369c0,1.058-.039,2.1-.117,3.136H.574C.5,10.47.457,9.427.457,8.369S.5,6.276.574,5.241H81.841q.117,1.552.117,3.128" transform="translate(-0.457 32.381)" fill="#b12233"/>
    <path id="Path_4360" data-name="Path 4360" d="M41.2.406V44.292H.574C.5,43.257.457,42.215.457,41.156S.5,39.063.574,38.028c.023-.265.047-.521.078-.778.062-.763.163-1.525.272-2.288.163-1.074.374-2.155.63-3.206a41.285,41.285,0,0,1,2.039-6.272c.163-.4.342-.8.529-1.206.444-.957.918-1.914,1.432-2.825q.63-1.144,1.331-2.241c.358-.56.731-1.113,1.128-1.657a.749.749,0,0,1,.1-.132A40.861,40.861,0,0,1,19.521,6.678a39.658,39.658,0,0,1,4.023-2.241c.132-.054.257-.117.4-.179.467-.226.942-.436,1.424-.646.21-.086.428-.171.638-.249A40.332,40.332,0,0,1,41.2.406" transform="translate(-0.457 -0.406)" fill="#3c3b6d"/>
    <path id="Path_4361" data-name="Path 4361" d="M7.14.675l.576,1.759h1.86l-1.5,1.1L8.649,5.29l-1.51-1.1-1.5,1.1.576-1.759L4.72,2.434H6.572Z" transform="translate(28.449 1.422)" fill="#fff"/>
    <path id="Path_4362" data-name="Path 4362" d="M6.972,4.108l.14.436-.6-.436-.9-.661-.9.661-.6.436.14-.436.428-1.323L3.424,1.867c.132-.054.257-.117.4-.179H5.035l.21-.646L5.883.785l.3.9H8.031l-1.486,1.1Z" transform="translate(19.663 2.164)" fill="#fff"/>
    <path id="Path_4363" data-name="Path 4363" d="M7.14,1.8l.576,1.766h1.86l-1.5,1.089.576,1.759L7.14,5.335l-1.5,1.082.576-1.759L4.72,3.569H6.572Z" transform="translate(28.449 9.063)" fill="#fff"/>
    <path id="Path_4364" data-name="Path 4364" d="M5.828,1.8,6.4,3.569H8.248L6.754,4.658,7.33,6.417l-1.5-1.082-1.5,1.082L4.9,4.658,3.392,3.569h1.86Z" transform="translate(19.447 9.063)" fill="#fff"/>
    <path id="Path_4365" data-name="Path 4365" d="M4.5,1.8,5.07,3.569H6.922L5.428,4.658,6,6.417,4.5,5.335,2.993,6.417l.576-1.759-1.5-1.089h1.86Z" transform="translate(10.459 9.063)" fill="#fff"/>
    <path id="Path_4366" data-name="Path 4366" d="M7.14,2.93,7.715,4.7h1.86l-1.5,1.089.576,1.759L7.14,6.463l-1.5,1.082.576-1.759L4.72,4.7H6.572Z" transform="translate(28.449 16.712)" fill="#fff"/>
    <path id="Path_4367" data-name="Path 4367" d="M5.828,2.93,6.4,4.7H8.248L6.754,5.786,7.33,7.545l-1.5-1.082-1.5,1.082L4.9,5.786,3.392,4.7h1.86Z" transform="translate(19.447 16.712)" fill="#fff"/>
    <path id="Path_4368" data-name="Path 4368" d="M4.5,2.93,5.07,4.7H6.922L5.428,5.786,6,7.545,4.5,6.463,2.993,7.545l.576-1.759L2.067,4.7h1.86Z" transform="translate(10.459 16.712)" fill="#fff"/>
    <path id="Path_4369" data-name="Path 4369" d="M2.828,4.558,3.4,6.325l-1.5-1.089-.965.7c.436-.957.91-1.906,1.424-2.825l.117.358H4.322Z" transform="translate(2.744 17.937)" fill="#fff"/>
    <path id="Path_4370" data-name="Path 4370" d="M7.14,4.057l.576,1.766h1.86l-1.5,1.1.576,1.751L7.14,7.59l-1.5,1.082.576-1.751L4.72,5.824H6.572Z" transform="translate(28.449 24.354)" fill="#fff"/>
    <path id="Path_4371" data-name="Path 4371" d="M5.828,4.057,6.4,5.824H8.248l-1.494,1.1L7.33,8.671,5.828,7.59l-1.5,1.082L4.9,6.921l-1.51-1.1h1.86Z" transform="translate(19.447 24.354)" fill="#fff"/>
    <path id="Path_4372" data-name="Path 4372" d="M4.5,4.057,5.07,5.824H6.922l-1.494,1.1L6,8.671,4.5,7.59,2.993,8.671l.576-1.751-1.5-1.1h1.86Z" transform="translate(10.459 24.354)" fill="#fff"/>
    <path id="Path_4373" data-name="Path 4373" d="M3.162,4.057l.576,1.766H5.6l-1.51,1.1.576,1.751L3.162,7.59,1.66,8.671l.576-1.751L.742,5.824H2.586Z" transform="translate(1.477 24.354)" fill="#fff"/>
    <path id="Path_4374" data-name="Path 4374" d="M7.14,5.185l.576,1.766h1.86l-1.5,1.089L8.649,9.8,7.14,8.718,5.638,9.8l.576-1.759L4.72,6.951H6.572Z" transform="translate(28.449 32.002)" fill="#fff"/>
    <path id="Path_4375" data-name="Path 4375" d="M5.828,5.185,6.4,6.951H8.248L6.754,8.041,7.33,9.8l-1.5-1.082L4.326,9.8,4.9,8.041,3.392,6.951h1.86Z" transform="translate(19.447 32.002)" fill="#fff"/>
    <path id="Path_4376" data-name="Path 4376" d="M4.5,5.185,5.07,6.951H6.922L5.428,8.041,6,9.8,4.5,8.718,2.993,9.8l.576-1.759-1.5-1.089h1.86Z" transform="translate(10.459 32.002)" fill="#fff"/>
    <path id="Path_4377" data-name="Path 4377" d="M3.162,5.185l.576,1.766H5.6L4.088,8.041,4.664,9.8l-1.5-1.082L1.66,9.8l.576-1.759L.742,6.951H2.586Z" transform="translate(1.477 32.002)" fill="#fff"/>
    <path id="Path_4378" data-name="Path 4378" d="M6.477,4.621l.576,1.766h1.86l-1.5,1.089.568,1.759-1.5-1.082-1.5,1.082.576-1.759L4.057,6.387H5.909Z" transform="translate(23.955 28.178)" fill="#fff"/>
    <path id="Path_4379" data-name="Path 4379" d="M5.165,4.621l.568,1.766H7.585L6.091,7.477l.576,1.759-1.5-1.082-1.5,1.082.568-1.759L2.73,6.387h1.86Z" transform="translate(14.953 28.178)" fill="#fff"/>
    <path id="Path_4380" data-name="Path 4380" d="M3.825,4.621,4.4,6.387H6.253L4.759,7.477l.568,1.759-1.5-1.082-1.5,1.082L2.9,7.477,1.405,6.387H3.257Z" transform="translate(5.972 28.178)" fill="#fff"/>
    <path id="Path_4381" data-name="Path 4381" d="M.692,5.937,1.268,7.7.482,7.136c.062-.77.163-1.525.272-2.288h1.44Z" transform="translate(-0.287 29.716)" fill="#fff"/>
    <path id="Path_4382" data-name="Path 4382" d="M6.477,3.494l.576,1.766h1.86L7.411,6.35l.568,1.759-1.5-1.1-1.5,1.1L5.551,6.35,4.057,5.261H5.909Z" transform="translate(23.955 20.537)" fill="#fff"/>
    <path id="Path_4383" data-name="Path 4383" d="M5.165,3.494l.568,1.766H7.585L6.091,6.35l.576,1.759-1.5-1.1-1.5,1.1L4.231,6.35,2.73,5.261h1.86Z" transform="translate(14.953 20.537)" fill="#fff"/>
    <path id="Path_4384" data-name="Path 4384" d="M3.825,3.494,4.4,5.261H6.253L4.759,6.35l.568,1.759-1.5-1.1-1.5,1.1L2.9,6.35,1.405,5.261H3.257Z" transform="translate(5.972 20.537)" fill="#fff"/>
    <path id="Path_4385" data-name="Path 4385" d="M6.477,2.366l.576,1.766h1.86l-1.5,1.089.568,1.759L6.477,5.9l-1.5,1.082.576-1.759L4.057,4.133H5.909Z" transform="translate(23.955 12.887)" fill="#fff"/>
    <path id="Path_4386" data-name="Path 4386" d="M5.165,2.366l.568,1.766H7.585L6.091,5.222l.576,1.759L5.165,5.9l-1.5,1.082.568-1.759L2.73,4.133h1.86Z" transform="translate(14.953 12.887)" fill="#fff"/>
    <path id="Path_4387" data-name="Path 4387" d="M4.828,5.922l.35,1.058L3.716,5.922l-.047-.031-.047.031L2.167,6.98l.35-1.058.226-.7L1.428,4.265a.749.749,0,0,1,.1-.132H3.093l.576-1.766.576,1.766H6.1L4.6,5.222Z" transform="translate(6.128 12.885)" fill="#fff"/>
    <path id="Path_4388" data-name="Path 4388" d="M6.477,1.238,7.053,3h1.86l-1.5,1.1.568,1.751-1.5-1.082-1.5,1.082L5.551,4.1,4.057,3H5.909Z" transform="translate(23.955 5.238)" fill="#fff"/>
    <path id="Path_4389" data-name="Path 4389" d="M5.165,1.238,5.733,3H7.585L6.091,4.1l.576,1.751-1.5-1.082-1.5,1.082L4.231,4.1,2.73,3h1.86Z" transform="translate(14.953 5.238)" fill="#fff"/>
  </g>
  <path id="Ellipse_6" data-name="Ellipse 6" d="M42.056,1.533A40.524,40.524,0,1,0,82.58,42.056,40.524,40.524,0,0,0,42.056,1.533m0-2.533a43.067,43.067,0,0,1,16.76,82.728A43.067,43.067,0,0,1,25.3,2.385,42.789,42.789,0,0,1,42.056-1Z" transform="translate(1 1)" fill="#99a4a7"/>
</svg>
