
<svg id="coonvert_icon" xmlns="http://www.w3.org/2000/svg" width="138.629" height="111.97" viewBox="0 0 138.629 111.97">
  <path id="coonvert" d="M66.925,75.458c0-20.165,16.051-36.511,35.852-36.511s35.852,16.346,35.852,36.511-16.051,36.511-35.852,36.511S66.925,95.623,66.925,75.458Zm4.779,0c0,17.475,13.913,31.644,31.073,31.644S133.85,92.934,133.85,75.458s-13.911-31.644-31.072-31.644S71.7,57.981,71.7,75.458Zm4.782,0a26.3,26.3,0,1,1,26.291,26.774A26.537,26.537,0,0,1,76.486,75.458Zm4.779,0a21.515,21.515,0,1,0,21.512-21.907A21.714,21.714,0,0,0,81.265,75.458Zm-43.023,7.3v7.3H33.462V77.892a2.412,2.412,0,0,1,2.39-2.434H47.8v4.867H42.449a34.612,34.612,0,0,0,26.2,14.6l-.264,4.87A39.444,39.444,0,0,1,38.242,82.759ZM99.79,93.519V90.062H98a7.238,7.238,0,0,1-7.172-7.3v-14.6A7.238,7.238,0,0,1,98,60.852h2.58V57.2h4.779v3.65h2.2a7.238,7.238,0,0,1,7.172,7.3h-4.779a2.413,2.413,0,0,0-2.392-2.434H98a2.413,2.413,0,0,0-2.392,2.434v4.867h11.951v4.87H95.605v4.867A2.413,2.413,0,0,0,98,85.2h9.559a2.414,2.414,0,0,0,2.392-2.436h4.779a7.238,7.238,0,0,1-7.172,7.3h-2.987v3.456ZM0,36.511C0,16.346,16.051,0,35.852,0S71.7,16.346,71.7,36.511,55.653,73.025,35.852,73.025,0,56.676,0,36.511Zm4.779,0c0,17.478,13.911,31.644,31.073,31.644S66.925,53.989,66.925,36.511,53.012,4.867,35.852,4.867,4.779,19.036,4.779,36.511Zm4.782,0A26.535,26.535,0,0,1,35.852,9.737,26.535,26.535,0,0,1,62.143,36.511,26.537,26.537,0,0,1,35.852,63.288,26.537,26.537,0,0,1,9.561,36.511Zm4.779,0A21.712,21.712,0,0,0,35.852,58.418,21.712,21.712,0,0,0,57.364,36.511,21.714,21.714,0,0,0,35.852,14.6,21.714,21.714,0,0,0,14.34,36.511ZM32.865,54.574V51.118h-.6a7.238,7.238,0,0,1-7.172-7.3V41.381h4.779v2.434a2.413,2.413,0,0,0,2.392,2.434h7.169a2.411,2.411,0,0,0,2.39-2.434V41.381a2.411,2.411,0,0,0-2.39-2.436H32.268a7.236,7.236,0,0,1-7.172-7.3V29.21a7.238,7.238,0,0,1,7.172-7.3h1.385v-3.65h4.779v3.65h1a7.238,7.238,0,0,1,7.172,7.3v2.434H41.826V29.21a2.411,2.411,0,0,0-2.39-2.436H32.268a2.413,2.413,0,0,0-2.392,2.436v2.434a2.413,2.413,0,0,0,2.392,2.434h7.169a7.238,7.238,0,0,1,7.172,7.3v2.434a7.238,7.238,0,0,1-7.172,7.3H37.644v3.456ZM93.216,36.511V31.644h5.45A34.62,34.62,0,0,0,72.373,17.038l.264-4.867a39.441,39.441,0,0,1,30.14,17.04v-7.3h4.779v12.17a2.411,2.411,0,0,1-2.39,2.434Z" transform="translate(0)" fill="#62a021"/>
</svg>
