
<svg id="eur_flag" xmlns="http://www.w3.org/2000/svg" width="87.446" height="87.446" viewBox="0 0 87.446 87.446">
  <path id="Ellipse_6" data-name="Ellipse 6" d="M42.723,1.572A41.151,41.151,0,1,0,83.874,42.723,41.151,41.151,0,0,0,42.723,1.572m0-2.572a43.734,43.734,0,0,1,17.02,84.009A43.734,43.734,0,0,1,25.7,2.437,43.452,43.452,0,0,1,42.723-1Z" transform="translate(1 1)" fill="#99a4a7"/>
  <g id="Group_3757" data-name="Group 3757" transform="translate(2.522 2.525)">
    <path id="Path_4422" data-name="Path 4422" d="M41.663,82.8a41.2,41.2,0,1,1,41.2-41.2,41.254,41.254,0,0,1-41.2,41.2" transform="translate(-0.462 -0.408)" fill="#063397"/>
    <path id="Path_4423" data-name="Path 4423" d="M7.484,7.811l.9,2.747H11.27l-2.345,1.7L9.822,15,7.484,13.3,5.147,15l.9-2.747L3.7,10.558H6.587Z" transform="translate(21.776 50.455)" fill="#fecb17"/>
    <path id="Path_4424" data-name="Path 4424" d="M10.518,7.811l.9,2.747h2.9l-2.345,1.7L12.856,15l-2.338-1.7L8.189,15l.889-2.747-2.345-1.7h2.9Z" transform="translate(42.619 50.455)" fill="#fecb17"/>
    <path id="Path_4425" data-name="Path 4425" d="M7.484,2.558l.9,2.755H11.27L8.925,7l.9,2.755-2.337-1.7-2.337,1.7L6.044,7,3.7,5.313H6.587Z" transform="translate(21.776 14.363)" fill="#fecb17"/>
    <path id="Path_4426" data-name="Path 4426" d="M10.518,2.558l.9,2.755h2.9L11.966,7l.889,2.755-2.338-1.7-2.33,1.7L9.078,7,6.733,5.313h2.9Z" transform="translate(42.619 14.363)" fill="#fecb17"/>
    <path id="Path_4427" data-name="Path 4427" d="M11.622,3.667l.9,2.755h2.888L13.062,8.114l.9,2.755-2.337-1.7-2.338,1.7.9-2.755L7.844,6.422h2.881Z" transform="translate(50.255 21.982)" fill="#fecb17"/>
    <path id="Path_4428" data-name="Path 4428" d="M6.374,3.667l.9,2.755h2.9L7.822,8.114l.889,2.755-2.337-1.7-2.33,1.7.889-2.755L2.588,6.422h2.9Z" transform="translate(14.147 21.982)" fill="#fecb17"/>
    <path id="Path_4429" data-name="Path 4429" d="M11.622,6.7l.9,2.747h2.888l-2.345,1.7.9,2.747-2.337-1.7L9.284,13.9l.9-2.747-2.338-1.7h2.881Z" transform="translate(50.255 42.835)" fill="#fecb17"/>
    <path id="Path_4430" data-name="Path 4430" d="M6.374,6.7l.9,2.747h2.9l-2.345,1.7L8.712,13.9,6.374,12.2l-2.33,1.7.889-2.747-2.345-1.7h2.9Z" transform="translate(14.147 42.835)" fill="#fecb17"/>
    <path id="Path_4431" data-name="Path 4431" d="M9,2.151,9.9,4.9h2.888L10.44,6.6l.9,2.747L9,7.645l-2.337,1.7L7.56,6.6,5.215,4.9H8.1Z" transform="translate(32.189 11.569)" fill="#fecb17"/>
    <path id="Path_4432" data-name="Path 4432" d="M9,8.218l.9,2.755h2.888L10.44,12.665l.9,2.755L9,13.719l-2.337,1.7.9-2.755L5.215,10.972H8.1Z" transform="translate(32.189 53.248)" fill="#fecb17"/>
    <path id="Path_4433" data-name="Path 4433" d="M12.034,5.183l.889,2.747h2.9l-2.345,1.7.9,2.747-2.337-1.7L9.7,12.376l.889-2.747L8.248,7.93h2.888Z" transform="translate(53.033 32.397)" fill="#fecb17"/>
    <path id="Path_4434" data-name="Path 4434" d="M5.97,5.183,6.859,7.93h2.9L7.41,9.63l.9,2.747-2.338-1.7-2.337,1.7L4.522,9.63,2.184,7.93H5.073Z" transform="translate(11.37 32.397)" fill="#fecb17"/>
  </g>
</svg>
