
<svg id="exchance_icon" xmlns="http://www.w3.org/2000/svg" width="70.474" height="101.307" viewBox="0 0 70.474 101.307">
  <path id="Union_4" data-name="Union 4" d="M22.794,99.87,1.346,76.995a5.134,5.134,0,0,1,0-6.931L22.794,47.188a4.4,4.4,0,0,1,6.5,0,5.134,5.134,0,0,1,0,6.931l-13.6,14.508H65.878a4.912,4.912,0,0,1,0,9.8H15.692L29.3,92.939a5.134,5.134,0,0,1,0,6.931,4.4,4.4,0,0,1-6.5,0ZM41.18,54.119a5.134,5.134,0,0,1,0-6.931l13.6-14.508H4.6a4.757,4.757,0,0,1-4.6-4.9,4.757,4.757,0,0,1,4.6-4.9H54.781L41.18,8.368a5.134,5.134,0,0,1,0-6.931,4.392,4.392,0,0,1,6.5,0L69.127,24.313a5.135,5.135,0,0,1,0,6.931L47.679,54.119a4.393,4.393,0,0,1-6.5,0Z" transform="translate(0)" fill="#62a021"/>
</svg>
