
<svg xmlns="http://www.w3.org/2000/svg" width="237.061" height="230.685" viewBox="0 0 237.061 230.685">
  <g id="FAST" transform="translate(-916.391 -1222.51)">
    <path id="Path_4163" data-name="Path 4163" d="M1311.123,415.533a1.984,1.984,0,0,1-1.4-3.386c1.146-1.146,2.281-2.331,3.372-3.517a1.983,1.983,0,1,1,2.921,2.684c-1.128,1.228-2.3,2.452-3.487,3.639a1.978,1.978,0,0,1-1.4.581" transform="translate(-193.805 1010.988)" fill="#d7e9c1"/>
    <path id="Path_4164" data-name="Path 4164" d="M1322.273,400.13a1.984,1.984,0,0,1-1.553-3.217,115.085,115.085,0,0,0,10.155-15.128,1.984,1.984,0,0,1,3.459,1.943,119.179,119.179,0,0,1-10.507,15.651,1.978,1.978,0,0,1-1.555.751" transform="translate(-195.998 1016.339)" fill="#d7e9c1"/>
    <path id="Path_4165" data-name="Path 4165" d="M1347.13,355.3a1.984,1.984,0,0,1-1.9-2.572c.646-2.082,1.239-4.2,1.761-6.311a1.984,1.984,0,0,1,3.851.956c-.541,2.18-1.154,4.376-1.822,6.53a1.985,1.985,0,0,1-1.894,1.4" transform="translate(-200.885 1023.391)" fill="#d7e9c1"/>
    <path id="Path_4166" data-name="Path 4166" d="M1352.166,326.044a1.953,1.953,0,0,1-.28-.02,1.983,1.983,0,0,1-1.686-2.241,116.089,116.089,0,0,0-.113-33.207,1.984,1.984,0,0,1,3.925-.583,120.1,120.1,0,0,1,.117,34.346,1.985,1.985,0,0,1-1.962,1.706" transform="translate(-201.852 1034.521)" fill="#d7e9c1"/>
    <path id="Path_4167" data-name="Path 4167" d="M1345.358,265.43a1.986,1.986,0,0,1-1.876-1.339c-.538-1.567-1.118-3.141-1.722-4.677a1.984,1.984,0,0,1,3.692-1.452c.625,1.589,1.225,3.218,1.782,4.84a1.983,1.983,0,0,1-1.232,2.52,1.961,1.961,0,0,1-.644.108" transform="translate(-200.192 1040.734)" fill="#d7e9c1"/>
    <path id="Path_4168" data-name="Path 4168" d="M1335.034,243.788a1.983,1.983,0,0,1-1.776-1.1,114.927,114.927,0,0,0-13.672-21.183,1.984,1.984,0,0,1,3.077-2.5,118.945,118.945,0,0,1,14.144,21.915,1.984,1.984,0,0,1-1.773,2.87" transform="translate(-195.772 1048.291)" fill="#d7e9c1"/>
    <path id="Path_4169" data-name="Path 4169" d="M1299.138,200.533a1.973,1.973,0,0,1-1.265-.456c-2.495-2.069-5.109-4.055-7.768-5.9a1.983,1.983,0,1,1,2.264-3.257c2.752,1.912,5.456,3.966,8.036,6.106a1.984,1.984,0,0,1-1.267,3.511" transform="translate(-189.895 1053.739)" fill="#d7e9c1"/>
    <path id="Path_4170" data-name="Path 4170" d="M1272.111,184.416a1.984,1.984,0,0,1-.976-.258,113.8,113.8,0,0,0-31.5-12.113,1.984,1.984,0,1,1,.86-3.873,117.78,117.78,0,0,1,32.6,12.534,1.984,1.984,0,0,1-.98,3.71" transform="translate(-179.834 1058.15)" fill="#d7e9c1"/>
    <path id="Path_4171" data-name="Path 4171" d="M1105.159,415.533a1.978,1.978,0,0,1-1.4-.581c-1.182-1.183-2.356-2.406-3.487-3.638a1.983,1.983,0,1,1,2.92-2.685c1.1,1.191,2.229,2.375,3.373,3.518a1.984,1.984,0,0,1-1.4,3.386" transform="translate(-152.634 1010.988)" fill="#d7e9c1"/>
    <path id="Path_4172" data-name="Path 4172" d="M1092.32,400.13a1.979,1.979,0,0,1-1.555-.751,119.191,119.191,0,0,1-10.506-15.651,1.984,1.984,0,1,1,3.459-1.943,115.111,115.111,0,0,0,10.156,15.128,1.984,1.984,0,0,1-1.553,3.217" transform="translate(-148.752 1016.339)" fill="#d7e9c1"/>
    <path id="Path_4173" data-name="Path 4173" d="M1069.552,355.3a1.983,1.983,0,0,1-1.893-1.4c-.668-2.149-1.281-4.346-1.823-6.53a1.984,1.984,0,0,1,3.85-.956c.524,2.11,1.116,4.233,1.761,6.31a1.984,1.984,0,0,1-1.9,2.572" transform="translate(-145.955 1023.391)" fill="#d7e9c1"/>
    <path id="Path_4174" data-name="Path 4174" d="M1064.644,326.044a1.985,1.985,0,0,1-1.962-1.706,120.108,120.108,0,0,1,.117-34.346,1.984,1.984,0,0,1,3.924.583,116.078,116.078,0,0,0-.113,33.206,1.984,1.984,0,0,1-1.686,2.242,1.956,1.956,0,0,1-.281.02" transform="translate(-145.115 1034.521)" fill="#d7e9c1"/>
    <path id="Path_4175" data-name="Path 4175" d="M1071.333,265.43a1.985,1.985,0,0,1-1.876-2.629c.556-1.62,1.156-3.248,1.782-4.84a1.984,1.984,0,0,1,3.692,1.452c-.606,1.539-1.185,3.112-1.722,4.677a1.985,1.985,0,0,1-1.876,1.339" transform="translate(-146.657 1040.734)" fill="#d7e9c1"/>
    <path id="Path_4176" data-name="Path 4176" d="M1078.683,243.788a1.984,1.984,0,0,1-1.773-2.87A118.846,118.846,0,0,1,1091.054,219a1.984,1.984,0,0,1,3.077,2.5,114.875,114.875,0,0,0-13.672,21.183,1.984,1.984,0,0,1-1.776,1.1" transform="translate(-148.102 1048.29)" fill="#d7e9c1"/>
    <path id="Path_4177" data-name="Path 4177" d="M1116.049,200.533a1.984,1.984,0,0,1-1.268-3.511c2.582-2.14,5.285-4.194,8.037-6.106a1.983,1.983,0,1,1,2.265,3.257c-2.659,1.849-5.274,3.835-7.77,5.9a1.968,1.968,0,0,1-1.264.456" transform="translate(-155.449 1053.739)" fill="#d7e9c1"/>
    <path id="Path_4178" data-name="Path 4178" d="M1137.166,184.416a1.984,1.984,0,0,1-.98-3.71,117.786,117.786,0,0,1,32.6-12.533,1.984,1.984,0,1,1,.859,3.873,113.806,113.806,0,0,0-31.5,12.113,1.981,1.981,0,0,1-.976.258" transform="translate(-159.601 1058.15)" fill="#d7e9c1"/>
    <path id="Path_4180" data-name="Path 4180" d="M1285.226,395.013a1.983,1.983,0,0,1-1.4-3.386c.851-.851,1.694-1.731,2.506-2.614a1.983,1.983,0,1,1,2.921,2.684c-.848.925-1.731,1.845-2.621,2.736a1.978,1.978,0,0,1-1.4.581" transform="translate(-188.713 1014.845)" fill="#d7e9c1"/>
    <path id="Path_4181" data-name="Path 4181" d="M1293.56,383.5a1.984,1.984,0,0,1-1.553-3.217,85.508,85.508,0,0,0,7.547-11.242,1.984,1.984,0,0,1,3.459,1.943,89.618,89.618,0,0,1-7.9,11.766,1.978,1.978,0,0,1-1.555.751" transform="translate(-190.352 1018.845)" fill="#d7e9c1"/>
    <path id="Path_4182" data-name="Path 4182" d="M1312.141,349.986a1.984,1.984,0,0,1-1.9-2.572c.48-1.547.92-3.124,1.309-4.689a1.983,1.983,0,1,1,3.85.956c-.406,1.639-.868,3.29-1.37,4.909a1.984,1.984,0,0,1-1.894,1.4" transform="translate(-194.005 1024.116)" fill="#d7e9c1"/>
    <path id="Path_4183" data-name="Path 4183" d="M1315.906,328.121a1.986,1.986,0,0,1-1.966-2.262,86.373,86.373,0,0,0-.084-24.678,1.983,1.983,0,1,1,3.924-.583,90.211,90.211,0,0,1,.088,25.817,1.984,1.984,0,0,1-1.962,1.706" transform="translate(-194.728 1032.436)" fill="#d7e9c1"/>
    <path id="Path_4184" data-name="Path 4184" d="M1310.817,282.812a1.984,1.984,0,0,1-1.876-1.341c-.4-1.158-.829-2.327-1.28-3.474a1.984,1.984,0,1,1,3.692-1.453c.472,1.2.924,2.426,1.34,3.639a1.988,1.988,0,0,1-1.876,2.629" transform="translate(-193.487 1037.08)" fill="#d7e9c1"/>
    <path id="Path_4185" data-name="Path 4185" d="M1303.1,266.635a1.983,1.983,0,0,1-1.776-1.1,85.349,85.349,0,0,0-10.16-15.741,1.984,1.984,0,0,1,3.078-2.5,89.439,89.439,0,0,1,10.633,16.474,1.985,1.985,0,0,1-1.774,2.87" transform="translate(-190.183 1042.728)" fill="#d7e9c1"/>
    <path id="Path_4186" data-name="Path 4186" d="M1276.267,234.3a1.977,1.977,0,0,1-1.265-.456c-1.856-1.539-3.8-3.016-5.773-4.388a1.984,1.984,0,0,1,2.264-3.258c2.066,1.436,4.1,2.981,6.041,4.591a1.984,1.984,0,0,1-1.267,3.511" transform="translate(-185.791 1046.802)" fill="#d7e9c1"/>
    <path id="Path_4187" data-name="Path 4187" d="M1256.064,222.253a1.983,1.983,0,0,1-.976-.258,84.579,84.579,0,0,0-23.406-9,1.984,1.984,0,0,1,.859-3.873,88.562,88.562,0,0,1,24.5,9.422,1.984,1.984,0,0,1-.98,3.71" transform="translate(-178.27 1050.099)" fill="#d7e9c1"/>
    <path id="Path_4188" data-name="Path 4188" d="M1131.268,395.013a1.978,1.978,0,0,1-1.4-.581c-.892-.892-1.774-1.812-2.622-2.736a1.984,1.984,0,0,1,2.922-2.684c.81.882,1.653,1.762,2.505,2.614a1.984,1.984,0,0,1-1.4,3.386" transform="translate(-157.938 1014.845)" fill="#d7e9c1"/>
    <path id="Path_4189" data-name="Path 4189" d="M1121.671,383.5a1.978,1.978,0,0,1-1.555-.751,89.607,89.607,0,0,1-7.9-11.766,1.984,1.984,0,0,1,3.459-1.943,85.588,85.588,0,0,0,7.547,11.243,1.983,1.983,0,0,1-1.553,3.216" transform="translate(-155.036 1018.845)" fill="#d7e9c1"/>
    <path id="Path_4190" data-name="Path 4190" d="M1104.652,349.986a1.984,1.984,0,0,1-1.894-1.4c-.5-1.614-.962-3.266-1.37-4.909a1.984,1.984,0,1,1,3.85-.956c.39,1.57.83,3.147,1.309,4.689a1.984,1.984,0,0,1-1.9,2.572" transform="translate(-152.945 1024.116)" fill="#d7e9c1"/>
    <path id="Path_4191" data-name="Path 4191" d="M1100.982,328.121a1.985,1.985,0,0,1-1.962-1.706,90.223,90.223,0,0,1,.088-25.817,1.984,1.984,0,1,1,3.924.583,86.28,86.28,0,0,0-.084,24.678,1.984,1.984,0,0,1-1.686,2.241,1.961,1.961,0,0,1-.281.02" transform="translate(-152.317 1032.436)" fill="#d7e9c1"/>
    <path id="Path_4192" data-name="Path 4192" d="M1105.983,282.812a1.988,1.988,0,0,1-1.876-2.629c.418-1.217.868-2.441,1.34-3.639a1.984,1.984,0,1,1,3.692,1.453c-.45,1.142-.88,2.312-1.28,3.474a1.985,1.985,0,0,1-1.876,1.341" transform="translate(-153.47 1037.08)" fill="#d7e9c1"/>
    <path id="Path_4193" data-name="Path 4193" d="M1111.477,266.635a1.984,1.984,0,0,1-1.773-2.87,89.373,89.373,0,0,1,10.632-16.474,1.984,1.984,0,1,1,3.078,2.5,85.433,85.433,0,0,0-10.16,15.741,1.984,1.984,0,0,1-1.776,1.1" transform="translate(-154.551 1042.728)" fill="#d7e9c1"/>
    <path id="Path_4194" data-name="Path 4194" d="M1139.408,234.3a1.984,1.984,0,0,1-1.267-3.511c1.941-1.61,3.974-3.154,6.041-4.591a1.984,1.984,0,0,1,2.265,3.258c-1.975,1.374-3.918,2.85-5.773,4.388a1.977,1.977,0,0,1-1.265.456" transform="translate(-160.042 1046.802)" fill="#d7e9c1"/>
    <path id="Path_4195" data-name="Path 4195" d="M1155.194,222.253a1.984,1.984,0,0,1-.98-3.71,88.553,88.553,0,0,1,24.5-9.422,1.984,1.984,0,0,1,.859,3.873,84.577,84.577,0,0,0-23.406,9,1.981,1.981,0,0,1-.976.258" transform="translate(-163.146 1050.099)" fill="#d7e9c1"/>
    <path id="Path_4196" data-name="Path 4196" d="M1202.563,210.6a1.984,1.984,0,0,1-.107-3.965,91.006,91.006,0,0,1,9.549-.018,1.984,1.984,0,0,1-.2,3.962,86.978,86.978,0,0,0-9.131.018c-.037,0-.073,0-.11,0" transform="translate(-172.46 1050.605)" fill="#9ac3ed"/>
    <path id="Path_4197" data-name="Path 4197" d="M1213.589,168.828c-.037,0-.074,0-.111,0a117.158,117.158,0,0,0-12.286-.026,1.984,1.984,0,1,1-.2-3.962,121.411,121.411,0,0,1,12.7.027,1.984,1.984,0,0,1-.107,3.965" transform="translate(-172.17 1057.827)" fill="#d7e9c1"/>
    <path id="Path_4198" data-name="Path 4198" d="M1154.105,344.755h-39.51V339.29a44.587,44.587,0,0,1,16.1-34.342l0,0c.39-.327.794-.64,1.208-.938a75.045,75.045,0,0,0,17.386-17.581s-4.067,33.866,3.371,56.281a9.159,9.159,0,0,0,1.448,2.046" transform="translate(-155.553 1034.89)" fill="#d7e9c1"/>
    <path id="Path_4199" data-name="Path 4199" d="M1203.383,181.633a149.325,149.325,0,0,0-34.359,140.533h68.719a149.323,149.323,0,0,0-34.36-140.533" transform="translate(-165.223 1055.494)" fill="#d7e9c1"/>
    <path id="Path_4200" data-name="Path 4200" d="M1213.5,179.9q-2.237,2.419-4.364,4.935a149.337,149.337,0,0,1,29.995,135.6h8.729A149.325,149.325,0,0,0,1213.5,179.9" transform="translate(-174.143 1055.834)" fill="#63a022" opacity="0.471"/>
    <rect id="Rectangle_934" data-name="Rectangle 934" width="47.123" height="6.364" transform="translate(1012.72 1377.661)" fill="#63a022"/>
    <rect id="Rectangle_935" data-name="Rectangle 935" width="43.844" height="6.364" transform="translate(1012.72 1377.661)" fill="#d7e9c1"/>
    <path id="Path_4201" data-name="Path 4201" d="M1228.77,364.423h-54.264a1.984,1.984,0,0,1-1.984-1.984v-6.364a1.984,1.984,0,0,1,1.984-1.984h54.264a1.984,1.984,0,0,1,1.984,1.984v6.364a1.984,1.984,0,0,1-1.984,1.984m-52.28-3.967h50.3v-2.4h-50.3Z" transform="translate(-166.943 1021.585)" fill="#63a022"/>
    <path id="Path_4202" data-name="Path 4202" d="M1219.393,251.7a13.593,13.593,0,1,1-13.593-13.593,13.593,13.593,0,0,1,13.593,13.593" transform="translate(-170.814 1044.39)" fill="#fff"/>
    <path id="Path_4203" data-name="Path 4203" d="M1208.459,238.257a13.59,13.59,0,1,0,11.808,13.473,13.593,13.593,0,0,0-11.808-13.473" transform="translate(-171.687 1044.361)" fill="#91b6db"/>
    <path id="Path_4204" data-name="Path 4204" d="M1210.912,238.257a13.505,13.505,0,0,0-1.785.359,13.591,13.591,0,0,1,0,26.228,13.339,13.339,0,0,0,1.785-26.587" transform="translate(-174.14 1044.361)" fill="#d7e9c1"/>
    <path id="Path_4205" data-name="Path 4205" d="M1216.7,251.817a10.387,10.387,0,1,0-10.023,13.114,13.595,13.595,0,0,0,10.023-13.114" transform="translate(-171.687 1044.273)" fill="#d7e9c1"/>
    <path id="Path_4206" data-name="Path 4206" d="M1205.315,266.792a15.577,15.577,0,1,1,15.577-15.577,15.595,15.595,0,0,1-15.577,15.577m0-27.187a11.61,11.61,0,1,0,11.61,11.61,11.623,11.623,0,0,0-11.61-11.61" transform="translate(-170.328 1044.876)" fill="#63a022"/>
    <path id="Path_4207" data-name="Path 4207" d="M1214.709,253.218a7.392,7.392,0,1,1-7.392-7.392,7.392,7.392,0,0,1,7.392,7.392" transform="translate(-172.331 1042.873)" fill="#fff"/>
    <path id="Path_4208" data-name="Path 4208" d="M1206.832,262.109a9.375,9.375,0,1,1,9.375-9.375,9.386,9.386,0,0,1-9.375,9.375m0-14.784a5.408,5.408,0,1,0,5.408,5.408,5.415,5.415,0,0,0-5.408-5.408" transform="translate(-171.846 1043.358)" fill="#63a022"/>
    <path id="Path_4209" data-name="Path 4209" d="M1284.387,299.889l0,0c-.39-.327-.795-.64-1.208-.939a74.957,74.957,0,0,1-23.614-28.162l1.539,34.454-5.216,34.454h44.6v-5.465a44.589,44.589,0,0,0-16.1-34.342" transform="translate(-183.334 1037.965)" fill="#d7e9c1"/>
    <path id="Path_4210" data-name="Path 4210" d="M1301.228,334.232a44.588,44.588,0,0,0-16.1-34.342l0,0q-.586-.49-1.208-.938a74.945,74.945,0,0,1-23.613-28.163l-.631,11.825a75.04,75.04,0,0,0,17.9,18.322c.413.3.817.611,1.208.938l0,0a44.586,44.586,0,0,1,16.1,34.342V339.7h6.348Z" transform="translate(-184.08 1037.965)" fill="#63a022" opacity="0.474"/>
    <path id="Path_4211" data-name="Path 4211" d="M1255.857,279.552l-.019-.016c-.423-.353-.867-.7-1.32-1.026a72.73,72.73,0,0,1-25.882-34.3,150.254,150.254,0,0,0-38.722-68.6,1.985,1.985,0,0,0-2.829,0,150.477,150.477,0,0,0-36.153,59.637,1.972,1.972,0,0,0-.23.555c-.054.235-.113.468-.169.7q-.968,3.111-1.8,6.27a72.712,72.712,0,0,1-26.383,35.737c-.455.329-.9.673-1.319,1.026l-.01.009a46.562,46.562,0,0,0-16.8,35.856v5.465a1.984,1.984,0,0,0,1.984,1.984h164.454a1.983,1.983,0,0,0,1.984-1.984V315.4a46.564,46.564,0,0,0-16.789-35.849M1108.192,315.4a42.609,42.609,0,0,1,15.382-32.818l.015-.013c.346-.289.711-.573,1.085-.844a76.9,76.9,0,0,0,20.663-22.329,152.64,152.64,0,0,0,3.056,59.484h-40.2Zm111.526,3.481H1152.49a148.351,148.351,0,0,1,.073-75.046q1.006-3.017,1.763-6.129a146.37,146.37,0,0,1,34.175-57.858,146.434,146.434,0,0,1,33.76,56.52,2.009,2.009,0,0,0,.039.315,76.241,76.241,0,0,0,2.511,8.615,148.287,148.287,0,0,1-.3,73.583Zm48.96,0h-40.072a152.567,152.567,0,0,0,3.094-59.212,76.9,76.9,0,0,0,20.495,22.057c.37.268.733.549,1.078.837l.022.019a42.609,42.609,0,0,1,15.382,32.818Z" transform="translate(-153.515 1056.795)" fill="#63a022"/>
    <path id="Path_4212" data-name="Path 4212" d="M1209.127,345.686v0Z" transform="translate(-174.14 1031.975)" fill="#91b6db"/>
    <path id="Path_4213" data-name="Path 4213" d="M1208.641,347.184a1.983,1.983,0,0,1-1.984-1.984V300.767a1.984,1.984,0,1,1,3.967,0V345.2a1.983,1.983,0,0,1-1.984,1.984" transform="translate(-173.655 1032.46)" fill="#4492d4"/>
    <path id="Path_4214" data-name="Path 4214" d="M1204.188,344.715V300.281a3.967,3.967,0,0,1,7.935,0v44.434Z" transform="translate(-173.169 1032.946)" fill="#91b6db"/>
    <path id="Path_4215" data-name="Path 4215" d="M1204.188,344.715V300.281a3.967,3.967,0,0,1,7.935,0v44.434Z" transform="translate(-173.169 1032.946)" fill="#fff"/>
    <path id="Path_4216" data-name="Path 4216" d="M1210.762,296.727a3.972,3.972,0,0,0-1.388,1.015,3.946,3.946,0,0,1,.991,2.621V344.8h2.777V300.362a3.967,3.967,0,0,0-2.38-3.635" transform="translate(-174.189 1032.864)" fill="#d7e9c1"/>
    <path id="Path_4217" data-name="Path 4217" d="M1209.131,297.99a3.946,3.946,0,0,0-.992,2.621v44.434h1.984V300.611a3.946,3.946,0,0,0-.991-2.621" transform="translate(-173.946 1032.616)" fill="#d7e9c1"/>
    <path id="Path_4218" data-name="Path 4218" d="M1211.637,346.213H1203.7a1.983,1.983,0,0,1-1.984-1.984V299.8a5.951,5.951,0,0,1,11.9,0V344.23a1.984,1.984,0,0,1-1.984,1.984m-5.951-3.967h3.967V299.8a1.984,1.984,0,1,0-3.967,0Z" transform="translate(-172.684 1033.431)" fill="#63a022"/>
    <path id="Path_4219" data-name="Path 4219" d="M1203.411,218.258a40.352,40.352,0,0,1-21.829-6.383,1.983,1.983,0,1,1,2.141-3.34,36.553,36.553,0,0,0,39.539-.1,1.984,1.984,0,1,1,2.159,3.328,40.341,40.341,0,0,1-22.01,6.5" transform="translate(-168.545 1050.288)" fill="#63a022"/>
    <path id="Path_4220" data-name="Path 4220" d="M1229.164,370.565a1.983,1.983,0,0,1-1.984-1.984v-4.111a1.984,1.984,0,1,1,3.967,0v4.111a1.983,1.983,0,0,1-1.984,1.984" transform="translate(-177.69 1019.934)" fill="#63a022"/>
    <path id="Path_4221" data-name="Path 4221" d="M1190.363,364.523v0Z" transform="translate(-170.451 1019.534)" fill="#91b6db"/>
    <path id="Path_4222" data-name="Path 4222" d="M1189.878,376.48a1.983,1.983,0,0,1-1.984-1.984V364.038a1.984,1.984,0,1,1,3.967,0V374.5a1.983,1.983,0,0,1-1.984,1.984" transform="translate(-169.966 1020.02)" fill="#63a022"/>
    <path id="Path_4223" data-name="Path 4223" d="M1186.079,395.2a1.983,1.983,0,0,0-1.984,1.984,23.989,23.989,0,0,1-14.334,21.953,1.983,1.983,0,1,0,1.6,3.631,27.954,27.954,0,0,0,16.7-25.584,1.983,1.983,0,0,0-1.984-1.984" transform="translate(-166.167 1013.503)" fill="#63a022"/>
    <path id="Path_4224" data-name="Path 4224" d="M1229.164,388.572a1.983,1.983,0,0,0,1.984-1.984v-6.494a1.984,1.984,0,1,0-3.967,0v6.494a1.983,1.983,0,0,0,1.984,1.984" transform="translate(-177.69 1016.862)" fill="#63a022"/>
    <path id="Path_4225" data-name="Path 4225" d="M1246.775,421.527a21.17,21.17,0,0,1-15.628-20.416,1.984,1.984,0,1,0-3.967,0,25.145,25.145,0,0,0,18.563,24.248,1.984,1.984,0,0,0,1.032-3.831" transform="translate(-177.69 1012.73)" fill="#63a022"/>
    <path id="Path_4226" data-name="Path 4226" d="M1141.988,411.419a22.676,22.676,0,0,0,13.551-20.754,1.926,1.926,0,0,1,0-.828v-25.8a1.984,1.984,0,1,0-3.967,0v25.8a1.963,1.963,0,0,1,0,.828,18.708,18.708,0,0,1-11.18,17.122,2.006,2.006,0,0,0-.228.129,13.933,13.933,0,0,0-22.251-2.331,19.276,19.276,0,0,0-27.708,2.738,17.852,17.852,0,0,0-22.753,23.642,1.984,1.984,0,0,0,3.654-1.546,13.889,13.889,0,1,1,26.4-8.2,1.984,1.984,0,1,0,3.887-.8,17.827,17.827,0,0,0-7.584-11.236,15.32,15.32,0,0,1,21.845-1.305,13.949,13.949,0,0,0-.814,10.274,1.983,1.983,0,0,0,3.79-1.171,9.983,9.983,0,1,1,19.083-.009,1.984,1.984,0,0,0,3.792,1.167,13.991,13.991,0,0,0,.169-7.614,1.963,1.963,0,0,0,.314-.105" transform="translate(-146.008 1020.02)" fill="#63a022"/>
    <path id="Path_4227" data-name="Path 4227" d="M1312.17,407.161a17.7,17.7,0,0,0-6.3,1.162,19.278,19.278,0,0,0-27.708-2.739,13.933,13.933,0,0,0-22.326,2.461,18.721,18.721,0,0,1-11.818-17.379,2.025,2.025,0,0,0-.044-.415,1.993,1.993,0,0,0,.044-.414v-25.8a1.984,1.984,0,0,0-3.967,0v25.8a1.985,1.985,0,0,0,.045.414,2.017,2.017,0,0,0-.045.415,22.7,22.7,0,0,0,14.3,21.061,13.957,13.957,0,0,0,.218,7.412,1.983,1.983,0,0,0,3.791-1.167,9.983,9.983,0,1,1,19.083.009,1.984,1.984,0,0,0,1.309,2.481,2.014,2.014,0,0,0,.587.088,1.983,1.983,0,0,0,1.894-1.4,13.96,13.96,0,0,0-.814-10.274,15.319,15.319,0,0,1,21.845,1.305,17.829,17.829,0,0,0-7.583,11.236,1.984,1.984,0,1,0,3.887.795,13.888,13.888,0,1,1,26.4,8.206,1.984,1.984,0,1,0,3.654,1.546,17.862,17.862,0,0,0-16.449-24.8" transform="translate(-180.22 1020.019)" fill="#63a022"/>
    <path id="Path_4228" data-name="Path 4228" d="M1208.259,402.4a1.983,1.983,0,0,0-1.984,1.984v6.613a1.984,1.984,0,0,0,3.967,0v-6.613a1.983,1.983,0,0,0-1.984-1.984" transform="translate(-173.58 1012.087)" fill="#63a022"/>
    <path id="Path_4229" data-name="Path 4229" d="M1208.259,362.054a1.983,1.983,0,0,0-1.984,1.984v21.039a1.984,1.984,0,1,0,3.967,0V364.038a1.983,1.983,0,0,0-1.984-1.984" transform="translate(-173.58 1020.02)" fill="#63a022"/>
    <path id="Path_4230" data-name="Path 4230" d="M1097.751,201.178h2.439v2.439a1.323,1.323,0,1,0,2.646,0v-2.439h2.439a1.322,1.322,0,1,0,0-2.645h-2.439v-2.44a1.323,1.323,0,0,0-2.646,0v2.44h-2.439a1.322,1.322,0,1,0,0,2.645" transform="translate(-151.982 1052.911)" fill="#63a022"/>
    <path id="Path_4231" data-name="Path 4231" d="M1339.385,402.731a1.666,1.666,0,0,0,2.357,0l2.175-2.174,2.174,2.174a1.667,1.667,0,1,0,2.357-2.357l-2.174-2.175,2.174-2.174a1.667,1.667,0,0,0-2.357-2.357l-2.174,2.174-2.175-2.174a1.667,1.667,0,0,0-2.357,2.357l2.174,2.174-2.174,2.175a1.667,1.667,0,0,0,0,2.357" transform="translate(-199.656 1013.899)" fill="#63a022"/>
    <path id="Path_4232" data-name="Path 4232" d="M1318.632,206.217a6.775,6.775,0,1,0-6.776-6.775,6.783,6.783,0,0,0,6.776,6.775m0-10.535a3.759,3.759,0,1,1-3.76,3.76,3.764,3.764,0,0,1,3.76-3.76" transform="translate(-194.339 1053.325)" fill="#63a022"/>
    <path id="Path_4233" data-name="Path 4233" d="M1078.346,185.021a6.775,6.775,0,1,0-6.776-6.775,6.783,6.783,0,0,0,6.776,6.775m0-10.535a3.759,3.759,0,1,1-3.761,3.76,3.765,3.765,0,0,1,3.761-3.76" transform="translate(-147.094 1057.493)" fill="#63a022"/>
    <path id="Path_4234" data-name="Path 4234" d="M1346.98,174.434a2.38,2.38,0,1,1-2.38-2.38,2.38,2.38,0,0,1,2.38,2.38" transform="translate(-200.309 1057.378)" fill="#63a022"/>
    <path id="Path_4235" data-name="Path 4235" d="M1073.368,404.285a2.38,2.38,0,1,1-2.38-2.38,2.381,2.381,0,0,1,2.38,2.38" transform="translate(-146.511 1012.184)" fill="#63a022"/>
  </g>
</svg>
