<svg xmlns="http://www.w3.org/2000/svg" width="422.279" height="48.343" viewBox="0 0 422.279 48.343">
  <g id="Group_3773" data-name="Group 3773" transform="translate(-80.87 -298.627)">
    <g id="Group_2" data-name="Group 2" transform="translate(137.616 298.627)">
      <path id="Path_1" data-name="Path 1" d="M156.966,261.119h-3.643a1.789,1.789,0,0,1,0-3.578h3.643a20.594,20.594,0,0,0,0-41.188h-5.448a1.789,1.789,0,0,1,0-3.578h5.448a24.172,24.172,0,0,1,0,48.343Z" transform="translate(-149.735 -212.776)" fill="#87c241"/>
    </g>
    <g id="Group_3" data-name="Group 3" transform="translate(103.058 298.627)">
      <path id="Path_2" data-name="Path 2" d="M166.7,261.119a24.126,24.126,0,0,1-22.892-16.609H132.139a1.789,1.789,0,0,1,0-3.578h13a1.783,1.783,0,0,1,1.723,1.329,20.6,20.6,0,1,0-.415-8.689,1.783,1.783,0,1,1-3.518-.581A24.1,24.1,0,1,1,166.7,261.119Z" transform="translate(-130.356 -212.776)" fill="#87c241"/>
    </g>
    <g id="Group_4" data-name="Group 4" transform="translate(80.87 308.49)">
      <path id="Path_3" data-name="Path 3" d="M156.838,221.855H119.7a1.783,1.783,0,0,1,0-3.567h37.141a1.783,1.783,0,0,1,0,3.567Z" transform="translate(-117.914 -218.288)" fill="#87c241"/>
    </g>
    <g id="Group_5" data-name="Group 5" transform="translate(90.678 317.437)">
      <path id="Path_4" data-name="Path 4" d="M159.693,226.855H125.2a1.783,1.783,0,1,1,0-3.567h34.5a1.783,1.783,0,1,1,0,3.567Z" transform="translate(-123.414 -223.288)" fill="#87c241"/>
    </g>
    <g id="Group_6" data-name="Group 6" transform="translate(83.852 326.832)">
      <path id="Path_5" data-name="Path 5" d="M133.555,232.1H121.369a1.783,1.783,0,0,1,0-3.567h12.185a1.783,1.783,0,1,1,0,3.567Z" transform="translate(-119.586 -228.538)" fill="#87c241"/>
    </g>
    <g id="Group_7" data-name="Group 7" transform="translate(95.73 343.404)">
      <path id="Path_6" data-name="Path 6" d="M169.916,241.366H128.03a1.783,1.783,0,0,1,0-3.567h41.886a1.783,1.783,0,0,1,0,3.567Z" transform="translate(-126.247 -237.799)" fill="#87c241"/>
    </g>
    <g id="Group_8" data-name="Group 8" transform="translate(109.997 334.736)">
      <path id="Path_7" data-name="Path 7" d="M136.569,236.522h-.539a1.783,1.783,0,0,1,0-3.567h.539a1.783,1.783,0,1,1,0,3.567Z" transform="translate(-134.247 -232.955)" fill="#87c241"/>
    </g>
    <g id="Group_9" data-name="Group 9" transform="translate(115.682 334.736)">
      <path id="Path_8" data-name="Path 8" d="M148.711,236.522h-9.492a1.783,1.783,0,1,1,0-3.567h9.492a1.783,1.783,0,1,1,0,3.567Z" transform="translate(-137.435 -232.955)" fill="#87c241"/>
    </g>
    <path id="Path_57" data-name="Path 57" d="M6.461,5.329a2.807,2.807,0,0,0-.778-2.034A6.787,6.787,0,0,0,3.092,1.847,20.324,20.324,0,0,1,.269.652,5.773,5.773,0,0,1-3.085-4.705,5.545,5.545,0,0,1-1.631-8.658,6.182,6.182,0,0,1,2.314-10.5v-3.156h2.3v3.185A5.7,5.7,0,0,1,8.491-8.332,7.34,7.34,0,0,1,9.859-3.721H6.374a4.581,4.581,0,0,0-.814-2.874,2.647,2.647,0,0,0-2.21-1.05,2.975,2.975,0,0,0-2.16.753A2.865,2.865,0,0,0,.413-4.734a2.71,2.71,0,0,0,.77,2.02A7.481,7.481,0,0,0,3.8-1.274,22.026,22.026,0,0,1,6.691-.014,7.4,7.4,0,0,1,8.462,1.311,5.267,5.267,0,0,1,9.571,3.027,6.089,6.089,0,0,1,9.959,5.3a5.425,5.425,0,0,1-1.49,3.967,6.542,6.542,0,0,1-4.154,1.8v2.823H2.026V11.077A6.567,6.567,0,0,1-2.358,9.021a6.7,6.7,0,0,1-1.533-4.6h3.5A4.032,4.032,0,0,0,.521,7.24a3.327,3.327,0,0,0,2.584,1,3.542,3.542,0,0,0,2.5-.8A2.749,2.749,0,0,0,6.461,5.329Z" transform="translate(138.133 322.355)" fill="#87c241"/>
    <g id="Group_10" data-name="Group 10" transform="translate(109.105 298.627)">
      <path id="Path_9" data-name="Path 9" d="M164.042,216.343H135.53a1.783,1.783,0,1,1,0-3.567h28.511a1.783,1.783,0,0,1,0,3.567Z" transform="translate(-133.747 -212.776)" fill="#87c241"/>
    </g>
    <path id="Path_4441" data-name="Path 4441" d="M20.982,0V-4.8H8.112v-6.045h12.6V-15.6H8.112v-5.655h12.87v-4.758H2.574V0ZM51.519,0,41.5-26.013H34.554L24.492,0h6.084l1.638-4.485H43.836L45.474,0Zm-9.2-9.282H33.7l4.329-11.934Zm11.5,5.616C56.277-1.209,59.865.468,64.857.468c7.02,0,10.413-3.588,10.413-8.346,0-5.772-5.46-7.059-9.75-8.034-3-.7-5.187-1.248-5.187-3,0-1.56,1.326-2.652,3.822-2.652A11.1,11.1,0,0,1,71.6-18.72l3.081-4.056A14.47,14.47,0,0,0,64.545-26.4c-6.123,0-9.867,3.51-9.867,7.839,0,5.811,5.46,6.981,9.711,7.956,3,.7,5.265,1.365,5.265,3.315,0,1.482-1.482,2.925-4.524,2.925a11.405,11.405,0,0,1-8.268-3.51ZM93.483,0V-10.647l9.945-15.366H97.11l-6.4,10.452L84.24-26.013H77.922L87.945-10.647V0Z" transform="translate(177.83 333)" fill="#354e57"/>
    <path id="Path_4440" data-name="Path 4440" d="M20.982,0V-4.8H8.112v-6.045h12.6V-15.6H8.112v-5.655h12.87v-4.758H2.574V0ZM50.856,0,41.418-13.377l8.853-12.636H43.6l-5.889,8.892-5.967-8.892H25.155l8.853,12.675L24.57,0h6.591l6.552-9.516L44.226,0ZM66.5.468a12.074,12.074,0,0,0,11.076-6.4l-4.758-2.3A7.052,7.052,0,0,1,66.5-4.446c-4.524,0-7.956-3.627-7.956-8.541s3.432-8.541,7.956-8.541a7.124,7.124,0,0,1,6.318,3.783l4.758-2.34A12,12,0,0,0,66.5-26.442c-7.605,0-13.65,5.46-13.65,13.455S58.89.468,66.5.468ZM106.236,0V-26.013h-5.577V-15.8H88.374V-26.013H82.836V0h5.538V-10.92h12.285V0Zm31.317,0L127.53-26.013h-6.942L110.526,0h6.084l1.638-4.485H129.87L131.508,0Zm-9.2-9.282H119.73l4.329-11.934ZM165.2,0V-26.013h-5.538V-9.165L147.615-26.013h-5.694V0h5.538V-17.472L159.861,0Zm5.85-12.987c0,8.19,6.24,13.494,13.845,13.494a14.438,14.438,0,0,0,11.076-4.914v-9.945h-12.4v4.758h6.942v3.159A8.788,8.788,0,0,1,184.9-4.446c-4.719,0-8.151-3.627-8.151-8.541s3.432-8.541,8.151-8.541a7.381,7.381,0,0,1,6.162,3.276l4.6-2.5A12.185,12.185,0,0,0,184.9-26.442C177.294-26.442,171.054-21.216,171.054-12.987ZM220.74,0V-4.8H207.87v-6.045h12.6V-15.6h-12.6v-5.655h12.87v-4.758H202.332V0Z" transform="translate(282.41 333)" fill="#87c241"/>
  </g>
</svg>