
<svg xmlns="http://www.w3.org/2000/svg" width="228.536" height="229.686" viewBox="0 0 228.536 229.686">
  <g id="SECURE" transform="translate(-192.489 -1223.509)">
    <path id="Path_3739" data-name="Path 3739" d="M208.969,241.894l0,.023c.372-.064.745-.129,1.116-.2-.371.058-.741.119-1.113.174" transform="translate(22.513 1043.68)" fill="#9ac3ed"/>
    <path id="Path_3740" data-name="Path 3740" d="M365.689,256.411c0-7.132-1.656-21.054-1.656-21.054a183.508,183.508,0,0,1-78.483-31.092,183.5,183.5,0,0,1-75.943,30.091c-.371.067-.744.131-1.116.2-.067.478-1.935,14.008-1.935,21.073a123.575,123.575,0,0,0,80.595,115.858,123.571,123.571,0,0,0,78.537-115.073" transform="translate(22.987 1051.044)" fill="#9ac3ed"/>
    <path id="Path_3741" data-name="Path 3741" d="M304.471,204.265c-.56.384-1.123.762-1.687,1.14a183.516,183.516,0,0,0,62.878,26.566,183.681,183.681,0,0,1-61.191-27.706" transform="translate(4.067 1051.044)" fill="#9ac3ed"/>
    <path id="Path_3742" data-name="Path 3742" d="M382.764,242.767q-2.54-.371-5.057-.813c.259,2.232,1.613,14.238,1.613,20.69a123.562,123.562,0,0,1-77.5,114.657q2.016.83,4.066,1.593A123.569,123.569,0,0,0,384.42,263.821c0-7.132-1.656-21.054-1.656-21.054" transform="translate(4.257 1043.634)" fill="#63a022" style="mix-blend-mode: darken;isolation: isolate"/>
    <path id="Path_3743" data-name="Path 3743" d="M393.243,240.96q-6.165-.9-12.192-2.208,6.042,1.486,12.235,2.572c-.027-.235-.043-.364-.043-.364" transform="translate(-11.322 1044.264)" fill="#9ac3ed"/>
    <path id="Path_3744" data-name="Path 3744" d="M360.59,255.513c0-6.453-1.355-18.458-1.613-20.691q-6.192-1.081-12.235-2.572a183.512,183.512,0,0,1-62.877-26.566,183.472,183.472,0,0,1-74.255,28.951c-.371.067-.744.131-1.116.2-.067.479-1.935,14.008-1.935,21.074a123.561,123.561,0,0,0,76.53,114.265,123.563,123.563,0,0,0,77.5-114.657" transform="translate(22.987 1050.765)" fill="#d7e9c1"/>
    <path id="Path_3745" data-name="Path 3745" d="M282.137,373.931a1.964,1.964,0,0,1-.66-.115,125.543,125.543,0,0,1-83.221-118.194c0-7.245,1.877-20.794,1.957-21.367a1.962,1.962,0,0,1,1.656-1.67,182.614,182.614,0,0,0,79.124-31.96,1.962,1.962,0,0,1,2.281,0,182.593,182.593,0,0,0,79.411,32,1.963,1.963,0,0,1,1.665,1.71c.068.574,1.67,14.12,1.67,21.285A125.543,125.543,0,0,1,282.8,373.816a1.96,1.96,0,0,1-.66.115M203.9,236.245c-.488,3.726-1.725,13.749-1.725,19.377a121.863,121.863,0,0,0,79.958,114.261A121.862,121.862,0,0,0,362.1,255.622c0-5.579-1.053-15.576-1.473-19.337a186.62,186.62,0,0,1-78.49-31.659A186.632,186.632,0,0,1,203.9,236.245" transform="translate(24.619 1051.832)" fill="#63a022"/>
    <path id="Path_3746" data-name="Path 3746" d="M285.413,363.627a112.168,112.168,0,0,1-70.5-104.139c0-2.833.386-7.246.822-11.278a196.355,196.355,0,0,0,69.673-28.293,196.35,196.35,0,0,0,69.809,28.319c.37,4.035.7,8.424.7,11.252a112.168,112.168,0,0,1-70.5,104.139" transform="translate(21.344 1047.967)" fill="#d7e9c1"/>
    <path id="Path_3747" data-name="Path 3747" d="M346.26,330.77a1.961,1.961,0,0,1-1.534-3.182c1.165-1.465,2.308-2.979,3.4-4.5a109.371,109.371,0,0,0,20.548-64.082c0-2.1-.192-5.4-.558-9.614a199.68,199.68,0,0,1-67.985-27.619c-2.428,1.563-4.913,3.088-7.406,4.542a1.962,1.962,0,0,1-1.977-3.389c2.8-1.636,5.6-3.363,8.309-5.134a1.962,1.962,0,0,1,2.146,0,195.6,195.6,0,0,0,69.109,28.036,1.961,1.961,0,0,1,1.58,1.747c.467,5.1.7,8.943.7,11.431a113.263,113.263,0,0,1-21.282,66.367c-1.126,1.572-2.309,3.138-3.514,4.654a1.959,1.959,0,0,1-1.537.741" transform="translate(6.625 1048.447)" fill="#63a022"/>
    <path id="Path_3748" data-name="Path 3748" d="M284.932,369.086a1.96,1.96,0,0,1-.727-.14,114.133,114.133,0,0,1-71.734-105.96c0-2.5.28-6.368.833-11.488a1.962,1.962,0,0,1,1.575-1.715,194.014,194.014,0,0,0,38.83-11.917,1.962,1.962,0,0,1,1.537,3.61,198.087,198.087,0,0,1-38.192,11.874c-.432,4.226-.66,7.538-.66,9.636A110.212,110.212,0,0,0,284.932,365.01a110.444,110.444,0,0,0,15.972-8.077,1.961,1.961,0,1,1,2.05,3.344,114.244,114.244,0,0,1-17.3,8.669,1.96,1.96,0,0,1-.727.14" transform="translate(21.824 1044.469)" fill="#63a022"/>
    <path id="Path_3749" data-name="Path 3749" d="M275.679,278.935a22.125,22.125,0,0,1,44.249,0V290.57h-9.116V278.935a13.009,13.009,0,1,0-26.017,0V290.57h-9.116Z" transform="translate(9.396 1040.713)" fill="#fff"/>
    <path id="Path_3750" data-name="Path 3750" d="M319.448,292.051h-9.116a1.961,1.961,0,0,1-1.961-1.961V278.455a11.048,11.048,0,0,0-22.1,0V290.09a1.961,1.961,0,0,1-1.961,1.961H275.2a1.962,1.962,0,0,1-1.962-1.961V278.455a24.086,24.086,0,0,1,48.173,0V290.09a1.961,1.961,0,0,1-1.962,1.961m-7.154-3.923h5.192v-9.673a20.163,20.163,0,1,0-40.326,0v9.673h5.193v-9.673a14.971,14.971,0,0,1,29.941,0Z" transform="translate(9.876 1041.193)" fill="#63a022"/>
    <path id="Path_3751" data-name="Path 3751" d="M311.47,342.067H277.463c-7.45,0-10.072-6.039-10.072-13.488V312.32c0-7.449,2.622-13.488,10.072-13.488H314.4c7.449,0,10.559,6.039,10.559,13.488v16.259c0,7.449-1.638,13.488-9.086,13.488" transform="translate(11.026 1032.45)" fill="#fff"/>
    <path id="Path_3752" data-name="Path 3752" d="M317.891,343.548H273.5A8.557,8.557,0,0,1,264.949,335V304.939a8.558,8.558,0,0,1,8.548-8.548h44.394a8.558,8.558,0,0,1,8.549,8.548V335a8.558,8.558,0,0,1-8.549,8.548M273.5,300.314a4.631,4.631,0,0,0-4.625,4.625V335a4.63,4.63,0,0,0,4.625,4.625h44.394A4.63,4.63,0,0,0,322.516,335V304.939a4.63,4.63,0,0,0-4.625-4.625Z" transform="translate(11.506 1032.93)" fill="#63a022"/>
    <path id="Path_3753" data-name="Path 3753" d="M307.163,312.734a5.223,5.223,0,1,0-7.835,4.519v6.279a2.611,2.611,0,1,0,5.223,0v-6.279a5.217,5.217,0,0,0,2.612-4.519" transform="translate(5.26 1030.744)" fill="#d7e9c1"/>
    <path id="Path_3754" data-name="Path 3754" d="M301.6,327.18a3.989,3.989,0,0,1-3.985-3.984v-5.548a6.6,6.6,0,1,1,7.969,0V323.2a3.988,3.988,0,0,1-3.984,3.984m0-18.633a3.847,3.847,0,0,0-1.923,7.181,1.372,1.372,0,0,1,.684,1.188v6.28a1.238,1.238,0,0,0,2.477,0v-6.28a1.373,1.373,0,0,1,.685-1.188,3.847,3.847,0,0,0-1.923-7.181" transform="translate(5.596 1031.08)" fill="#63a022"/>
    <path id="Path_3755" data-name="Path 3755" d="M338.4,315.6h-9.659a2.936,2.936,0,0,1-2.936-2.936v-.08a2.936,2.936,0,0,1,2.936-2.936H338.4a2.936,2.936,0,0,1,2.936,2.936v.08A2.936,2.936,0,0,1,338.4,315.6" transform="translate(-0.461 1030.323)" fill="#63a022"/>
    <path id="Path_3756" data-name="Path 3756" d="M338.4,327.1h-9.659a2.936,2.936,0,0,1-2.936-2.936v-.08a2.936,2.936,0,0,1,2.936-2.936H338.4a2.936,2.936,0,0,1,2.936,2.936v.08A2.936,2.936,0,0,1,338.4,327.1" transform="translate(-0.461 1028.062)" fill="#63a022"/>
    <path id="Path_3757" data-name="Path 3757" d="M273.892,316.03h-9.659a2.936,2.936,0,0,1-2.936-2.936v-.08a2.936,2.936,0,0,1,2.936-2.936h9.659a2.936,2.936,0,0,1,2.936,2.936v.08a2.936,2.936,0,0,1-2.936,2.936" transform="translate(12.224 1030.239)" fill="#63a022"/>
    <path id="Path_3758" data-name="Path 3758" d="M273.892,327.1h-9.659a2.936,2.936,0,0,1-2.936-2.936v-.08a2.936,2.936,0,0,1,2.936-2.936h9.659a2.936,2.936,0,0,1,2.936,2.936v.08a2.936,2.936,0,0,1-2.936,2.936" transform="translate(12.224 1028.062)" fill="#63a022"/>
    <path id="Path_3759" data-name="Path 3759" d="M325.809,339.523h0Z" transform="translate(-0.461 1024.45)" fill="#fff"/>
    <path id="Path_3760" data-name="Path 3760" d="M335.964,341H325.329a1.961,1.961,0,1,1,0-3.923h10.635a1.961,1.961,0,1,1,0,3.923" transform="translate(0.02 1024.93)" fill="#63a022"/>
    <path id="Path_3761" data-name="Path 3761" d="M267.391,339.523h0Z" transform="translate(11.026 1024.45)" fill="#fff"/>
    <path id="Path_3762" data-name="Path 3762" d="M303.228,341H266.91a1.961,1.961,0,0,1,0-3.923h36.317a1.961,1.961,0,1,1,0,3.923" transform="translate(11.506 1024.93)" fill="#63a022"/>
    <path id="Path_3763" data-name="Path 3763" d="M376.985,223.106a1.954,1.954,0,0,1-1.426-.615,92.149,92.149,0,0,0-41.447-25.3,1.962,1.962,0,0,1,1.085-3.77A96.077,96.077,0,0,1,378.411,219.8a1.961,1.961,0,0,1-1.426,3.308" transform="translate(-1.814 1053.191)" fill="#d7e9c1"/>
    <path id="Path_3764" data-name="Path 3764" d="M293.156,192.99a1.961,1.961,0,0,1-.147-3.917,98.259,98.259,0,0,1,13.221-.108,1.961,1.961,0,1,1-.235,3.916,94.2,94.2,0,0,0-12.689.1c-.051,0-.1.006-.151.006" transform="translate(6.345 1054.087)" fill="#d7e9c1"/>
    <path id="Path_3765" data-name="Path 3765" d="M213.942,227.195a1.961,1.961,0,0,1-1.477-3.252,95.785,95.785,0,0,1,30.866-23.49,1.961,1.961,0,1,1,1.7,3.536,91.894,91.894,0,0,0-29.608,22.534,1.957,1.957,0,0,1-1.478.672" transform="translate(21.92 1051.832)" fill="#d7e9c1"/>
    <path id="Path_3766" data-name="Path 3766" d="M188.343,280.937a1.964,1.964,0,0,1-1.908-2.422c.437-1.81.933-3.628,1.475-5.406a1.962,1.962,0,0,1,3.753,1.144c-.52,1.7-1,3.448-1.414,5.183a1.963,1.963,0,0,1-1.906,1.5" transform="translate(26.954 1037.781)" fill="#d7e9c1"/>
    <path id="Path_3767" data-name="Path 3767" d="M210.088,377.337a1.958,1.958,0,0,1-1.448-.637A95.657,95.657,0,0,1,184.9,328.528a1.961,1.961,0,0,1,3.864-.676,91.751,91.751,0,0,0,22.773,46.2,1.962,1.962,0,0,1-1.446,3.286" transform="translate(27.252 1027.064)" fill="#d7e9c1"/>
    <path id="Path_3768" data-name="Path 3768" d="M227.193,399.775a1.953,1.953,0,0,1-1.246-.447c-.84-.692-1.676-1.4-2.485-2.118a1.961,1.961,0,0,1,2.595-2.942c.776.684,1.579,1.368,2.384,2.032a1.961,1.961,0,0,1-1.248,3.475" transform="translate(19.793 1013.782)" fill="#d7e9c1"/>
    <path id="Path_3769" data-name="Path 3769" d="M291.033,424.067a96.124,96.124,0,0,1-46.524-12,1.962,1.962,0,1,1,1.9-3.43,92.191,92.191,0,0,0,44.62,11.508c2.637,0,5.3-.112,7.909-.335a1.962,1.962,0,1,1,.333,3.909c-2.721.231-5.494.349-8.242.349" transform="translate(15.723 1010.909)" fill="#d7e9c1"/>
    <path id="Path_3770" data-name="Path 3770" d="M340.838,419.807a1.962,1.962,0,0,1-.647-3.814c2.1-.733,4.2-1.554,6.234-2.439a1.962,1.962,0,0,1,1.562,3.6c-2.126.923-4.313,1.779-6.5,2.544a1.957,1.957,0,0,1-.647.11" transform="translate(-3.03 1009.925)" fill="#d7e9c1"/>
    <path id="Path_3771" data-name="Path 3771" d="M395.928,369.593a1.961,1.961,0,0,1-1.567-3.139,92.037,92.037,0,0,0,17.413-41.8,1.961,1.961,0,1,1,3.881.567A95.963,95.963,0,0,1,397.5,368.809a1.96,1.96,0,0,1-1.571.784" transform="translate(-13.862 1027.703)" fill="#d7e9c1"/>
    <path id="Path_3772" data-name="Path 3772" d="M419.145,304.952a1.961,1.961,0,0,1-1.959-1.911c-.063-2.423-.221-4.867-.471-7.263a1.961,1.961,0,1,1,3.9-.407c.26,2.5.426,5.044.491,7.569a1.961,1.961,0,0,1-1.91,2.012h-.051" transform="translate(-18.332 1033.477)" fill="#d7e9c1"/>
    <path id="Path_3773" data-name="Path 3773" d="M266.449,444.913a1.994,1.994,0,0,1-.468-.056c-3.41-.833-6.821-1.837-10.137-2.984a1.962,1.962,0,0,1,1.281-3.708c3.2,1.108,6.5,2.077,9.788,2.881a1.962,1.962,0,0,1-.464,3.867" transform="translate(13.556 1005.076)" fill="#d7e9c1"/>
    <path id="Path_3774" data-name="Path 3774" d="M298.644,445.163a115.849,115.849,0,0,1-14.725-.94,1.961,1.961,0,1,1,.5-3.891,111.82,111.82,0,0,0,14.224.908,109.9,109.9,0,0,0,60.271-17.9,1.962,1.962,0,1,1,2.146,3.284,113.812,113.812,0,0,1-62.417,18.538" transform="translate(8.113 1008.032)" fill="#d7e9c1"/>
    <path id="Path_3775" data-name="Path 3775" d="M415.4,390.237a1.961,1.961,0,0,1-1.586-3.114c1.522-2.1,2.989-4.276,4.359-6.475a1.962,1.962,0,0,1,3.33,2.074c-1.419,2.278-2.938,4.533-4.514,6.706a1.959,1.959,0,0,1-1.589.809" transform="translate(-17.69 1016.545)" fill="#d7e9c1"/>
    <path id="Path_3776" data-name="Path 3776" d="M428.46,356.76a1.962,1.962,0,0,1-1.769-2.805,109.358,109.358,0,0,0,10.669-47.4c0-1.748-.042-3.519-.123-5.263a1.961,1.961,0,1,1,3.918-.183c.085,1.8.128,3.637.128,5.446a113.24,113.24,0,0,1-11.05,49.085,1.962,1.962,0,0,1-1.772,1.118" transform="translate(-20.259 1032.37)" fill="#d7e9c1"/>
    <path id="Path_3777" data-name="Path 3777" d="M431.71,257.294a1.963,1.963,0,0,1-1.828-1.251c-.966-2.481-2.037-4.959-3.183-7.367a1.962,1.962,0,1,1,3.542-1.686c1.187,2.494,2.3,5.06,3.3,7.63a1.963,1.963,0,0,1-1.828,2.674" transform="translate(-20.26 1042.864)" fill="#d7e9c1"/>
    <path id="Path_3778" data-name="Path 3778" d="M407.066,222.828a1.961,1.961,0,0,1-1.638-.88A110.446,110.446,0,0,0,358,181.8a1.961,1.961,0,1,1,1.59-3.586A114.354,114.354,0,0,1,408.7,219.784a1.962,1.962,0,0,1-1.634,3.044" transform="translate(-6.56 1056.199)" fill="#d7e9c1"/>
    <path id="Path_3779" data-name="Path 3779" d="M263.179,174.774a1.962,1.962,0,0,1-.545-3.846,114.058,114.058,0,0,1,14.753-3.233,1.962,1.962,0,1,1,.583,3.88,110.122,110.122,0,0,0-14.244,3.121,1.957,1.957,0,0,1-.547.078" transform="translate(12.24 1058.239)" fill="#d7e9c1"/>
    <path id="Path_3780" data-name="Path 3780" d="M180.127,230.294a1.962,1.962,0,0,1-1.71-2.92,114.038,114.038,0,0,1,49.978-47.13,1.961,1.961,0,0,1,1.712,3.529,110.141,110.141,0,0,0-48.267,45.518,1.962,1.962,0,0,1-1.714,1" transform="translate(28.569 1055.806)" fill="#d7e9c1"/>
    <path id="Path_3781" data-name="Path 3781" d="M162.454,312.435a1.962,1.962,0,0,1-1.959-1.9c-.041-1.26-.062-2.541-.062-3.807,0-1.567.032-3.157.1-4.725a1.961,1.961,0,0,1,3.92.159c-.061,1.515-.092,3.052-.092,4.566,0,1.224.02,2.461.06,3.678a1.963,1.963,0,0,1-1.9,2.025h-.065" transform="translate(32.056 1032.196)" fill="#d7e9c1"/>
    <path id="Path_3782" data-name="Path 3782" d="M196.681,396.081a1.954,1.954,0,0,1-1.375-.562,113.9,113.9,0,0,1-31.32-55.977,1.961,1.961,0,1,1,3.824-.872,110,110,0,0,0,30.246,54.051,1.961,1.961,0,0,1-1.375,3.361" transform="translate(31.367 1024.917)" fill="#d7e9c1"/>
    <path id="Path_3783" data-name="Path 3783" d="M169.924,202.448a8.813,8.813,0,1,1,8.813-8.813,8.823,8.823,0,0,1-8.813,8.813m0-13.7a4.89,4.89,0,1,0,4.89,4.89,4.9,4.9,0,0,0-4.89-4.89" transform="translate(31.923 1054.867)" fill="#62a021"/>
    <path id="Path_3784" data-name="Path 3784" d="M430.825,433.892a8.813,8.813,0,1,1,8.813-8.813,8.823,8.823,0,0,1-8.813,8.813m0-13.7a4.89,4.89,0,1,0,4.89,4.89,4.9,4.9,0,0,0-4.89-4.89" transform="translate(-19.376 1009.36)" fill="#62a021"/>
    <path id="Path_3785" data-name="Path 3785" d="M403.521,440.157h-11.16a1.961,1.961,0,0,1,0-3.923h11.16a1.961,1.961,0,1,1,0,3.923" transform="translate(-13.16 1005.434)" fill="#62a021"/>
    <path id="Path_3786" data-name="Path 3786" d="M399.306,444.371a1.961,1.961,0,0,1-1.962-1.962V431.25a1.962,1.962,0,1,1,3.924,0v11.16a1.962,1.962,0,0,1-1.962,1.962" transform="translate(-14.526 1006.8)" fill="#62a021"/>
    <path id="Path_3787" data-name="Path 3787" d="M219.995,175.551h-11.16a1.961,1.961,0,1,1,0-3.923h11.16a1.961,1.961,0,1,1,0,3.923" transform="translate(22.925 1057.462)" fill="#62a021"/>
    <path id="Path_3788" data-name="Path 3788" d="M215.78,179.765a1.962,1.962,0,0,1-1.962-1.962v-11.16a1.962,1.962,0,0,1,3.924,0V177.8a1.962,1.962,0,0,1-1.962,1.962" transform="translate(21.559 1058.827)" fill="#62a021"/>
    <path id="Path_3789" data-name="Path 3789" d="M187.488,434.687a1.527,1.527,0,0,1-1.083-.448l-6.16-6.161a1.531,1.531,0,0,1,2.165-2.166l6.161,6.161a1.531,1.531,0,0,1-1.083,2.614" transform="translate(28.249 1007.552)" fill="#63a022"/>
    <path id="Path_3790" data-name="Path 3790" d="M181.327,434.687a1.531,1.531,0,0,1-1.083-2.614l6.161-6.161a1.532,1.532,0,0,1,2.166,2.166l-6.161,6.161a1.527,1.527,0,0,1-1.083.448" transform="translate(28.249 1007.552)" fill="#62a021"/>
    <path id="Path_3791" data-name="Path 3791" d="M423.181,184.094a2.354,2.354,0,1,1-2.354-2.354,2.354,2.354,0,0,1,2.354,2.354" transform="translate(-18.68 1055.473)" fill="#62a021"/>
  </g>
</svg>
