
<svg id="Uk_flag" xmlns="http://www.w3.org/2000/svg" width="86.113" height="86.113" viewBox="0 0 86.113 86.113">
  <g id="UK_flag-2" data-name="UK_flag" transform="translate(2.533 2.533)">
    <path id="Path_4305" data-name="Path 4305" d="M54.137.706v22.13L35.974,13.747A40.188,40.188,0,0,1,54.137.706" transform="translate(-27.428 1.58)" fill="#04247b"/>
    <path id="Path_4306" data-name="Path 4306" d="M60,13.747,41.835,22.836V.706A40.148,40.148,0,0,1,60,13.747" transform="translate(12.496 1.58)" fill="#04247b"/>
    <path id="Path_4307" data-name="Path 4307" d="M54.137,7.688V29.81A40.148,40.148,0,0,1,35.974,16.769Z" transform="translate(-27.428 48.951)" fill="#04247b"/>
    <path id="Path_4308" data-name="Path 4308" d="M60,16.769A40.148,40.148,0,0,1,41.835,29.81V7.688Z" transform="translate(12.496 48.951)" fill="#04247b"/>
    <path id="Path_4309" data-name="Path 4309" d="M115.9,40.938a40.524,40.524,0,0,1-.812,8.1,41.947,41.947,0,0,1-1.493,5.386H102.254l9.347,4.681a40.1,40.1,0,0,1-4.356,6.833L88.867,56.747V79.141a38.409,38.409,0,0,1-5.378,1.5,40.46,40.46,0,0,1-16.211,0,38.512,38.512,0,0,1-5.386-1.5V56.747L43.515,65.94c-.565-.72-1.114-1.462-1.633-2.229l18.587-9.286H48.359l-9.231,4.612a40.435,40.435,0,0,1-3.451-10,40.46,40.46,0,0,1,0-16.211,41.024,41.024,0,0,1,1.486-5.386H48.436L39.151,22.8a40.822,40.822,0,0,1,4.364-6.871l18.378,9.2V2.721a38.486,38.486,0,0,1,5.386-1.493,40.46,40.46,0,0,1,16.211,0,38.383,38.383,0,0,1,5.378,1.493V25.13l18.378-9.2c.565.7,1.107,1.439,1.609,2.19L90.221,27.443h12.11l9.278-4.643a39.494,39.494,0,0,1,3.482,10.028,40.486,40.486,0,0,1,.813,8.109" transform="translate(-34.856 -0.407)" fill="#fff"/>
    <path id="Path_4310" data-name="Path 4310" d="M46.292,7.888H35.154A39.371,39.371,0,0,1,37.111,3.3Z" transform="translate(-32.876 19.109)" fill="#ce152a"/>
    <path id="Path_4311" data-name="Path 4311" d="M54.765,7.387A40.555,40.555,0,0,1,52.8,12.012L43.566,7.387Z" transform="translate(23.997 46.664)" fill="#ce152a"/>
    <path id="Path_4312" data-name="Path 4312" d="M63.146,7.32l-9.173,4.587H42.01L60.425,2.7A39.417,39.417,0,0,1,63.146,7.32" transform="translate(13.658 15.037)" fill="#ce152a"/>
    <path id="Path_4313" data-name="Path 4313" d="M56.491,7.387,38.129,16.568a40.875,40.875,0,0,1-2.721-4.617l9.12-4.564Z" transform="translate(-31.188 46.709)" fill="#ce152a"/>
    <path id="Path_4314" data-name="Path 4314" d="M115.9,40.938a40.524,40.524,0,0,1-.812,8.1h-31.6v31.6a40.46,40.46,0,0,1-16.211,0V49.04h-31.6a40.46,40.46,0,0,1,0-16.211h31.6V1.227a40.46,40.46,0,0,1,16.211,0v31.6h31.6a40.486,40.486,0,0,1,.813,8.109" transform="translate(-34.856 -0.407)" fill="#ce152a"/>
  </g>
  <path id="Ellipse_6" data-name="Ellipse 6" d="M42.056,1.533A40.524,40.524,0,1,0,82.58,42.056,40.524,40.524,0,0,0,42.056,1.533m0-2.533a43.067,43.067,0,0,1,16.76,82.728A43.067,43.067,0,0,1,25.3,2.385,42.789,42.789,0,0,1,42.056-1Z" transform="translate(1 1)" fill="#99a4a7"/>
</svg>
